<?xml version="1.0" standalone="no"?>
<!DOCTYPE svg PUBLIC "-//W3C//DTD SVG 20010904//EN"
 "http://www.w3.org/TR/2001/REC-SVG-20010904/DTD/svg10.dtd">
<svg version="1.0" xmlns="http://www.w3.org/2000/svg"
 width="379.000000pt" height="379.000000pt" viewBox="0 0 379.000000 379.000000"
 preserveAspectRatio="xMidYMid meet">
<metadata>
Created by potrace 1.11, written by Peter Selinger 2001-2013
</metadata>
<g transform="translate(0.000000,379.000000) scale(0.100000,-0.100000)"
fill="#000000" stroke="none">
<path d="M668 3765 c-103 -29 -153 -53 -189 -92 -35 -36 -37 -44 -54 -208 -3
-27 -8 -66 -10 -85 -3 -19 -7 -48 -9 -65 -9 -67 -53 -353 -61 -395 -14 -69
-34 -126 -65 -190 -121 -243 -231 -657 -268 -1010 -15 -140 -7 -548 14 -665
116 -673 536 -971 1464 -1042 203 -16 768 -8 955 12 551 61 906 220 1110 495
93 127 178 337 199 495 3 22 11 72 16 110 15 94 21 480 10 580 -17 146 -34
264 -45 315 -4 14 -8 39 -11 55 -24 145 -130 477 -199 625 -29 61 -54 135 -66
192 -17 87 -82 492 -93 584 -2 22 -7 56 -10 75 -3 19 -8 46 -10 61 -13 81
-133 147 -313 173 l-42 6 -11 -40 c-12 -45 -27 -125 -35 -191 -3 -25 -8 -61
-10 -80 -3 -19 -7 -60 -10 -90 -12 -132 -16 -168 -21 -215 -3 -27 -7 -51 -7
-52 -1 0 -31 17 -66 38 -96 58 -274 121 -406 144 -221 39 -338 50 -540 48
-377 -1 -678 -64 -912 -188 -68 -36 -83 -41 -84 -27 -2 31 -6 77 -13 137 -3
33 -8 87 -11 120 -5 52 -13 119 -30 242 -9 61 -26 127 -37 140 -14 17 -27 16
-130 -12z m276 -1185 c78 -29 151 -179 171 -350 41 -353 -104 -678 -265 -595
-190 98 -235 632 -74 875 46 69 106 94 168 70z m2017 -27 c56 -51 110 -163
125 -261 3 -21 9 -55 13 -77 16 -97 0 -275 -35 -385 -68 -215 -200 -271 -303
-129 -70 96 -102 240 -97 429 4 141 5 148 32 238 56 196 167 273 265 185z
m-916 -1356 c77 -78 158 -163 180 -187 35 -40 145 -169 151 -178 2 -2 28 13
58 33 104 69 223 215 317 390 36 67 44 76 54 61 7 -9 21 -28 31 -43 82 -114
234 -276 301 -320 22 -15 26 -13 71 28 87 79 212 170 212 154 0 -4 -11 -21
-24 -38 -57 -76 -129 -250 -171 -412 -22 -84 -25 -90 -49 -88 -37 2 -186 79
-311 160 l-109 72 -77 -73 c-82 -79 -187 -157 -287 -213 l-64 -36 -76 74 c-42
41 -81 79 -86 85 -19 18 -149 129 -209 177 l-59 47 -98 -80 c-53 -44 -148
-133 -210 -196 l-112 -117 -61 29 c-118 55 -239 143 -380 274 -11 11 -25 16
-31 12 -6 -4 -50 -33 -98 -65 -98 -65 -292 -161 -311 -154 -6 2 -23 47 -36 98
-46 182 -122 358 -184 428 -22 24 -21 24 28 -4 68 -38 153 -102 192 -144 l31
-35 39 29 c60 45 178 171 255 273 39 50 72 92 73 92 2 0 28 -44 59 -99 98
-174 203 -301 304 -367 l53 -36 20 24 c190 221 444 488 463 488 6 0 74 -64
151 -143z"/>
</g>
</svg>
