<svg width="1023" height="758" viewBox="0 0 1023 758" fill="none" xmlns="http://www.w3.org/2000/svg">
<path fill-rule="evenodd" clip-rule="evenodd" d="M906.379 33.2804C920.576 59.2553 923.731 117.158 920.576 145.297C962.561 179.866 1005.73 572.1 1024 758H0C20.4299 572.1 69.2575 179.866 120.841 145.297C116.108 113.64 120.841 71.4311 131.882 44.6444C158.698 23.5398 201.287 6.49378 237.567 0C247.031 38.9624 237.567 111.205 237.567 111.205C303.817 38.9624 739.176 33.2804 799.117 107.958C799.117 107.958 799.117 38.9624 808.582 0C832.243 9.68851e-06 887.774 14.6109 906.379 33.2804ZM282.906 285.665C237.674 285.665 229.876 196.198 282.906 196.198C335.936 196.198 328.138 285.665 282.906 285.665ZM739.38 285.665C694.147 285.665 686.349 196.198 739.38 196.198C792.41 196.198 784.612 285.665 739.38 285.665ZM706.368 364.055L706.362 364.06L706.358 364.064C704.842 362.888 703.396 361.768 702.014 360.697C675.366 340.053 672.411 337.764 648.842 307.533C648.842 307.533 621.075 364.947 584.383 379.963C584.383 379.963 554.633 342.865 512.983 304C470.342 343.748 442.575 379.08 442.575 379.08C396.958 346.398 377.125 308.416 377.125 308.416C377.125 308.416 330.517 355.231 304.733 365.831C303.992 364.951 303.28 364.105 302.595 363.292C286.78 344.522 285.356 342.832 273 321.666C273 443.663 290.062 559.655 313.714 677.634C313.714 677.634 345.448 663.501 383.131 624.636C383.131 624.636 409.906 665.268 451.556 690C451.556 690 481.25 644.952 512.983 616.687C541.742 644.952 575.402 690 575.402 690C616.061 681.167 642.836 625.519 642.836 625.519C672.586 662.618 707.294 677.634 707.294 677.634C735.332 559.008 749 449.249 749 321.666C737.101 334.031 737.1 334.032 706.368 364.055Z" fill="#080808"/>
</svg>
