<svg width="1440" height="1011" viewBox="0 0 1440 1011" fill="none" xmlns="http://www.w3.org/2000/svg">
<path fill-rule="evenodd" clip-rule="evenodd" d="M1296.29 57.1353C1317.09 101.729 1321.71 201.135 1317.09 249.444C1359.92 290.775 1405.97 666.591 1440 1011H0C39.1665 666.706 92.9923 290.797 145.64 249.444C138.708 195.096 145.64 122.632 161.814 76.6449C201.093 40.4127 263.478 11.1484 316.621 0C330.484 66.89 310 170.5 310 170.5C457 76.6449 1005.5 76.6449 1146.5 170.5C1146.5 170.5 1139.18 66.89 1153.04 0C1187.7 1.66331e-05 1269.04 25.0838 1296.29 57.1353ZM470.382 362C421.408 362 412.965 265 470.382 265C527.799 265 519.356 362 470.382 362ZM964.618 362C915.644 362 907.201 265 964.618 265C1022.03 265 1013.59 362 964.618 362ZM971 383.519L970.999 383.521L970.998 383.523C958.55 404.183 958.548 404.186 926.388 454.366C924.802 452.401 923.289 450.529 921.843 448.74C893.962 414.244 890.871 410.419 866.213 359.904C866.213 359.904 837.163 455.842 798.775 480.934C798.775 480.934 767.65 418.943 724.075 354C679.463 420.419 650.412 479.458 650.412 479.458C602.688 424.847 581.938 361.38 581.938 361.38C581.938 361.38 533.175 439.606 506.2 457.318C505.425 455.847 504.68 454.435 503.963 453.077C487.417 421.711 485.928 418.887 473 383.519C473 587.374 490.851 781.195 515.596 978.336C515.596 978.336 548.796 954.721 588.221 889.778C588.221 889.778 616.234 957.673 659.809 999C659.809 999 690.875 923.725 724.075 876.494C754.162 923.725 789.379 999 789.379 999C831.916 984.24 859.929 891.254 859.929 891.254C891.054 953.245 927.366 978.336 927.366 978.336C956.7 780.115 971 596.709 971 383.519Z" fill="#080808"/>
</svg>
