<svg width="1920" height="1067" viewBox="0 0 1920 1067" fill="none" xmlns="http://www.w3.org/2000/svg">
<path fill-rule="evenodd" clip-rule="evenodd" d="M0 1067C41.2837 958.293 60.3296 844.397 77.8535 739.603C102.565 591.827 124.25 462.15 200.998 390.645C191.846 305.532 200.998 192.049 222.351 120.031C274.21 63.2888 356.574 17.4591 426.736 0C445.039 104.754 426.736 241.5 426.736 241.5C788 134 1101 120.031 1504 241.5C1504 241.5 1512.72 104.754 1531.02 0C1576.78 2.60484e-05 1684.17 39.2827 1720.16 89.4773C1747.61 159.313 1753.71 314.989 1747.61 390.645C1822.52 479.5 1841.26 616.326 1861.88 766.851V766.853C1875.23 864.26 1889.36 967.405 1920 1067H0ZM579.384 506C504.152 506 491.182 351 579.384 351C667.587 351 654.617 506 579.384 506ZM1338.62 506C1263.38 506 1250.41 351 1338.62 351C1426.82 351 1413.85 506 1338.62 506ZM1215 409.977L1215 409.978C1202.18 430.961 1202.17 430.962 1169.04 481.922C1167.41 479.927 1165.85 478.026 1164.36 476.208C1135.64 441.178 1132.46 437.293 1107.06 385.995C1107.06 385.995 1077.13 483.421 1037.59 508.902C1037.59 508.902 1005.53 445.95 960.638 380C914.681 447.449 884.756 507.403 884.756 507.403C835.594 451.945 814.219 387.494 814.219 387.494C814.219 387.494 763.987 466.934 736.2 484.92C735.401 483.427 734.634 481.993 733.896 480.613C716.852 448.761 715.317 445.893 702 409.977C702 616.993 720.388 813.819 745.879 1014.02C745.879 1014.02 780.079 990.034 820.692 924.085C820.692 924.085 849.548 993.032 894.436 1035C894.436 1035 926.438 958.558 960.638 910.595C991.631 958.558 1027.91 1035 1027.91 1035C1071.73 1020.01 1100.58 925.584 1100.58 925.584C1132.65 988.536 1170.05 1014.02 1170.05 1014.02C1200.27 812.721 1215 626.472 1215 409.977Z" fill="#080808"/>
</svg>
