<svg width="2048" height="1067" viewBox="0 0 2048 1067" fill="none" xmlns="http://www.w3.org/2000/svg">
<path fill-rule="evenodd" clip-rule="evenodd" d="M0 1067C43.9922 958.334 64.3306 844.483 83.0453 739.721C109.453 591.896 132.627 462.169 214.463 390.645C204.707 305.532 214.463 192.049 237.226 120.031C292.508 63.2888 380.309 17.4591 455.102 0C474.613 104.754 455.102 241.5 455.102 241.5C840.212 134 1173.87 120.031 1603.47 241.5C1603.47 241.5 1612.77 104.754 1632.28 0C1681.06 2.60484e-05 1795.54 39.2827 1833.9 89.4773C1863.17 159.313 1869.67 314.989 1863.16 390.645C1931.61 464.142 1954.51 602.171 1979.97 755.669C1996.85 857.412 2014.86 965.951 2048 1067H0ZM617.826 506C537.628 506 523.802 351 617.826 351C711.851 351 698.025 506 617.826 506ZM1427.17 506C1346.97 506 1333.15 351 1427.17 351C1521.2 351 1507.37 506 1427.17 506ZM1285.82 424.593C1278.8 435.181 1271.56 445.625 1246.41 481.922C1244.67 479.927 1243.01 478.026 1241.42 476.209C1210.8 441.178 1207.41 437.294 1180.33 385.995C1180.33 385.995 1148.43 483.421 1106.27 508.902C1106.27 508.902 1072.1 445.95 1024.25 380C975.256 447.449 943.355 507.403 943.355 507.403C890.948 451.945 868.162 387.494 868.162 387.494C868.162 387.494 814.615 466.934 784.993 484.92C784.142 483.427 783.324 481.993 782.537 480.613C764.368 448.761 762.732 445.893 748.536 409.977C748.536 616.993 768.138 813.819 795.311 1014.02C795.311 1014.02 831.769 990.034 875.062 924.085C875.062 924.085 905.823 993.032 953.673 1035C953.673 1035 987.788 958.558 1024.25 910.595C1057.28 958.558 1095.96 1035 1095.96 1035C1142.67 1020.01 1173.43 925.584 1173.43 925.584C1207.61 988.536 1247.48 1014.02 1247.48 1014.02C1279.69 812.721 1295.4 626.472 1295.4 409.977C1291.46 416.015 1288.66 420.316 1285.82 424.593Z" fill="#080808"/>
</svg>
