<svg width="323" height="558" viewBox="0 0 323 558" fill="none" xmlns="http://www.w3.org/2000/svg">
<path fill-rule="evenodd" clip-rule="evenodd" d="M322 558H2.00001L0.327881 437.5C8.82023 302.677 23.4452 106.053 37.4342 88.0942C35.9363 68.9005 37.4342 43.3089 40.9289 27.0681C49.4163 14.2723 62.8962 3.9372 74.3792 0C77.3746 23.623 74.3792 67.4241 74.3792 67.4241C95.3479 23.623 233.143 20.178 252.115 65.4555C252.115 65.4555 252.115 23.623 255.11 0C262.599 5.87418e-06 280.175 8.85863 286.064 20.178C290.557 35.9267 291.556 71.0331 290.557 88.0942C301.944 106.053 314.814 302.677 322.399 437.5L322 558ZM88.1098 206.899C73.2681 206.899 70.7093 139.259 88.1098 139.259C105.51 139.259 102.952 206.899 88.1098 206.899ZM237.89 206.899C223.048 206.899 220.49 139.259 237.89 139.259C255.291 139.259 252.732 206.899 237.89 206.899ZM264.274 233.594C261.556 238.971 258.742 244.298 249.008 262.731C248.333 261.715 247.689 260.748 247.074 259.824C235.205 242.002 233.889 240.026 223.392 213.928C223.392 213.928 211.025 263.493 194.683 276.456C194.683 276.456 181.433 244.43 162.883 210.878C143.892 245.192 131.525 275.694 131.525 275.694C111.208 247.48 102.375 214.691 102.375 214.691C102.375 214.691 81.6167 255.105 70.1333 264.256C69.8033 263.496 69.4862 262.766 69.1811 262.065C62.1375 245.86 61.5033 244.401 56 226.129C56 331.447 63.5991 431.581 74.1333 533.43C74.1333 533.43 88.2667 521.23 105.05 487.678C105.05 487.678 116.975 522.755 135.525 544.106C135.525 544.106 148.75 505.217 162.883 480.815C175.692 505.217 190.683 544.106 190.683 544.106C208.792 536.48 220.717 488.441 220.717 488.441C233.967 520.467 249.425 533.43 249.425 533.43C261.912 431.023 268 336.27 268 226.129C266.468 229.215 265.379 231.409 264.274 233.594Z" fill="#080808"/>
</svg>
