<svg width="568" height="315" viewBox="0 0 568 315" fill="none" xmlns="http://www.w3.org/2000/svg">
<path fill-rule="evenodd" clip-rule="evenodd" d="M-1 315C-1 315 18.6042 141.905 57.9626 108.09C55.2166 84.5394 57.9626 53.1391 64.3696 33.2119C79.9298 17.5117 104.643 4.83086 125.695 0C131.187 28.9849 125.695 82.7278 125.695 82.7278C164.138 28.9849 416.762 24.758 451.543 80.3125C451.543 80.3125 451.543 28.9849 457.035 0C470.765 7.20749e-06 502.988 10.8694 513.784 24.758C522.022 44.0813 523.852 87.1561 522.022 108.09C554.057 141.905 569 315 569 315H-1ZM108.091 189C72.4371 189 66.2902 121 108.091 121C149.893 121 143.746 189 108.091 189ZM467.909 189C432.254 189 426.107 121 467.909 121C509.71 121 503.563 189 467.909 189ZM387.311 137.435C384.582 140.401 381.787 143.307 372.008 153.476C371.333 152.918 370.689 152.387 370.074 151.88C358.205 142.092 356.889 141.007 346.392 126.675C346.392 126.675 334.025 153.895 317.683 161.014C317.683 161.014 304.433 143.426 285.883 125C266.892 143.844 254.525 160.595 254.525 160.595C234.208 145.101 225.375 127.094 225.375 127.094C225.375 127.094 204.617 149.288 193.133 154.314C192.803 153.896 192.486 153.495 192.181 153.11C185.138 144.211 184.503 143.41 179 133.375C179 191.213 186.599 246.204 197.133 302.137C197.133 302.137 211.267 295.437 228.05 277.011C228.05 277.011 239.975 296.275 258.525 308C258.525 308 271.75 286.643 285.883 273.243C298.692 286.643 313.683 308 313.683 308C331.792 303.812 343.717 277.43 343.717 277.43C356.967 295.018 372.425 302.137 372.425 302.137C384.912 245.898 391 193.862 391 133.375C389.485 135.051 388.403 136.248 387.311 137.435Z" fill="#080808"/>
</svg>
