<svg width="768" height="1013" viewBox="0 0 768 1013" fill="none" xmlns="http://www.w3.org/2000/svg">
<path fill-rule="evenodd" clip-rule="evenodd" d="M672.094 37.9061C682.444 67.4914 684.745 133.442 682.444 165.493C716.965 209.894 757.406 835.677 768.224 1013H0.055603C11.9971 835.677 56.9458 209.894 99.3572 165.493C95.9069 129.436 99.3572 81.3595 107.408 50.8497C126.959 26.8117 158.011 7.39638 184.463 0C191.363 44.3779 184.463 126.662 184.463 126.662C232.766 44.3779 550.186 37.9061 593.889 122.964C593.889 122.964 593.889 44.3779 600.79 0C618.041 1.10352e-05 658.529 16.6417 672.094 37.9061ZM197.205 365.18C160.186 365.18 153.804 206.102 197.205 206.102C240.606 206.102 234.224 365.18 197.205 365.18ZM570.795 365.18C533.776 365.18 527.394 206.102 570.795 206.102C614.196 206.102 607.814 365.18 570.795 365.18ZM594.364 407.791C588.784 417.885 583.016 427.875 563.031 462.482C561.646 460.577 560.325 458.763 559.062 457.028C534.708 423.585 532.008 419.877 510.469 370.904C510.469 370.904 485.094 463.913 451.562 488.239C451.562 488.239 424.375 428.14 386.312 365.18C347.344 429.571 321.969 486.808 321.969 486.808C280.281 433.864 262.156 372.335 262.156 372.335C262.156 372.335 219.562 448.173 196 465.344C195.323 463.918 194.672 462.549 194.046 461.232C179.593 430.824 178.292 428.086 167 393.798C167 591.43 182.592 779.334 204.208 970.456C204.208 970.456 233.208 947.562 267.645 884.601C267.645 884.601 292.114 950.423 330.176 990.489C330.176 990.489 357.312 917.512 386.312 871.723C412.594 917.512 443.355 990.489 443.355 990.489C480.511 976.18 504.98 886.032 504.98 886.032C532.167 946.131 563.886 970.456 563.886 970.456C589.509 778.286 602 600.48 602 393.798C598.861 399.581 596.628 403.695 594.364 407.791Z" fill="#080808"/>
</svg>
