<svg width="24" height="24" viewBox="0 0 24 24" fill="none" xmlns="http://www.w3.org/2000/svg">
<path fill-rule="evenodd" clip-rule="evenodd" d="M3.64286 7.15625H20.3571C20.7122 7.15625 21 6.87645 21 6.53125V4.96875C21 4.62355 20.7122 4.34375 20.3571 4.34375H3.64286C3.2878 4.34375 3 4.62355 3 4.96875V6.53125C3 6.87645 3.2878 7.15625 3.64286 7.15625ZM3.64286 13.4062H20.3571C20.7122 13.4062 21 13.1264 21 12.7812V11.2188C21 10.8736 20.7122 10.5938 20.3571 10.5938H3.64286C3.2878 10.5938 3 10.8736 3 11.2188V12.7812C3 13.1264 3.2878 13.4062 3.64286 13.4062ZM20.3571 19.6562H3.64286C3.2878 19.6562 3 19.3764 3 19.0312V17.4688C3 17.1236 3.2878 16.8438 3.64286 16.8438H20.3571C20.7122 16.8438 21 17.1236 21 17.4688V19.0312C21 19.3764 20.7122 19.6562 20.3571 19.6562Z" fill="#101010"/>
<mask id="mask0" mask-type="alpha" maskUnits="userSpaceOnUse" x="3" y="4" width="18" height="16">
<path fill-rule="evenodd" clip-rule="evenodd" d="M3.64286 7.15625H20.3571C20.7122 7.15625 21 6.87645 21 6.53125V4.96875C21 4.62355 20.7122 4.34375 20.3571 4.34375H3.64286C3.2878 4.34375 3 4.62355 3 4.96875V6.53125C3 6.87645 3.2878 7.15625 3.64286 7.15625ZM3.64286 13.4062H20.3571C20.7122 13.4062 21 13.1264 21 12.7812V11.2188C21 10.8736 20.7122 10.5938 20.3571 10.5938H3.64286C3.2878 10.5938 3 10.8736 3 11.2188V12.7812C3 13.1264 3.2878 13.4062 3.64286 13.4062ZM20.3571 19.6562H3.64286C3.2878 19.6562 3 19.3764 3 19.0312V17.4688C3 17.1236 3.2878 16.8438 3.64286 16.8438H20.3571C20.7122 16.8438 21 17.1236 21 17.4688V19.0312C21 19.3764 20.7122 19.6562 20.3571 19.6562Z" fill="white"/>
</mask>
<g mask="url(#mask0)">
<rect width="24" height="24" fill="#101010"/>
</g>
</svg>
