<?xml version="1.0" encoding="UTF-8" standalone="no"?>
<svg
   width="39.004841"
   height="39.999401"
   viewBox="0 0 39.00484 39.9994"
   fill="none"
   version="1.1"
   id="svg60"
   sodipodi:docname="basedfile.svg"
   inkscape:version="1.2.1 (8a69933317, 2022-10-28, custom)"
   xmlns:inkscape="http://www.inkscape.org/namespaces/inkscape"
   xmlns:sodipodi="http://sodipodi.sourceforge.net/DTD/sodipodi-0.dtd"
   xmlns="http://www.w3.org/2000/svg"
   xmlns:svg="http://www.w3.org/2000/svg"
   xmlns:rdf="http://www.w3.org/1999/02/22-rdf-syntax-ns#"
   xmlns:cc="http://creativecommons.org/ns#"
   xmlns:dc="http://purl.org/dc/elements/1.1/">
  <metadata
     id="metadata66">
    <rdf:RDF>
      <cc:Work
         rdf:about="">
        <dc:format>image/svg+xml</dc:format>
        <dc:type
           rdf:resource="http://purl.org/dc/dcmitype/StillImage" />
      </cc:Work>
    </rdf:RDF>
  </metadata>
  <defs
     id="defs64" />
  <sodipodi:namedview
     pagecolor="#ffffff"
     bordercolor="#666666"
     borderopacity="1"
     objecttolerance="10"
     gridtolerance="10"
     guidetolerance="10"
     inkscape:pageopacity="0"
     inkscape:pageshadow="2"
     inkscape:window-width="1680"
     inkscape:window-height="955"
     id="namedview62"
     showgrid="false"
     inkscape:snap-grids="true"
     inkscape:snap-page="false"
     inkscape:zoom="22.627417"
     inkscape:cx="8.7283493"
     inkscape:cy="16.771689"
     inkscape:window-x="0"
     inkscape:window-y="25"
     inkscape:window-maximized="1"
     inkscape:current-layer="layer3"
     inkscape:showpageshadow="false"
     inkscape:pagecheckerboard="false"
     inkscape:deskcolor="#d1d1d1"
     showborder="false"
     borderlayer="false"
     shape-rendering="auto"
     showguides="true" />
  <g
     inkscape:groupmode="layer"
     id="layer3"
     inkscape:label="Layer 3"
     transform="translate(3.7773227,13.493312)">
    <path
       id="path742"
       style="display:none;fill:#000000"
       d="m 3.6015835,-13.491359 c -0.7433631,0.06512 -3.41011917,2.390432 -3.8789062,3.8046876 -0.4999995,1.5084385 -0.5,7.5429688 -0.5,7.5429688 -2.4999964,4.5252954 -2.999987,11.0618146 -3,12.5703126 0,5.640894 0.9999066,10.055469 5.0703125,13.072266 4.0989559,3.038096 9.5659452,3.008312 14.4316402,3.007812 4.866696,-4e-4 10.331645,0.03108 14.431641,-3.007812 4.070396,-3.016797 5.070313,-7.431372 5.070313,-13.072266 0,-1.508498 -0.500003,-8.0450172 -3,-12.5703126 0,0 -1e-6,-6.0345303 -0.5,-7.5429688 -0.5,-1.5085386 -3.500001,-4.0542276 -4,-3.7871096 -0.4975,0.265838 -0.4999,8.2375903 -0.5,8.3125003 -3.547797,-2.6045274 -7.525858,-3.9027738 -11.501954,-3.9023438 -3.982496,4.3e-4 -7.9620162,1.3037263 -11.5019527,3.9023438 -10e-6,-0.0749 -0.00249,-8.0466873 -0.5,-8.3125003 -0.031246,-0.01669 -0.071536,-0.02192 -0.1210938,-0.01758 z M 6.2226773,0.61215675 c 0.8284284,0 1.5,0.79404945 1.5,3.01562505 0,2.2215354 -0.6715916,1.7246093 -1.5,1.7246093 -0.8284084,0 -1.5,0.4969261 -1.5,-1.7246093 0,-2.2215756 0.6715716,-3.01562505 1.5,-3.01562505 z m 19.0039067,0 c 0.828498,0 1.5,0.79404945 1.5,3.01562505 0,2.2215354 -0.671502,1.7246093 -1.5,1.7246093 -0.8284,0 -1.5,0.4969261 -1.5,-1.7246093 0,-2.2215756 0.6716,-3.01562505 1.5,-3.01562505 z m -9.5,8.78710935 c 1.350982,1.2983359 2.569198,2.8888719 4.603515,5.5429689 1.812096,-1.446558 3.26453,-3.187241 4.298828,-5.2558595 1.330498,1.6572495 2.16401,3.0994715 4.097657,4.1718755 0.899205,-1.082454 1.500358,-2.034399 2.722656,-3.160157 -0.855798,1.333618 -2.124303,8.360565 -1.722656,9.527344 -1.08214,0.06459 -3.025904,-0.446776 -4.5,-2.011719 -1.199663,1.96112 -3.090987,3.236503 -5.115235,4.199219 -0.873383,-1.342334 -2.736662,-3.074794 -4.384765,-4.199219 -1.564781,1.038507 -3.654058,3.12046 -4.386719,4.199219 -2.3110313,-1.040486 -3.8323603,-2.315453 -5.1171877,-4.199219 -1.1077328,1.153534 -2.70348,2.011719 -4.5,2.011719 C 2.2051128,18.581775 0.72244261,11.823862 2.105e-5,10.698094 0.99995023,11.60058 1.7528585,12.673359 2.7226773,13.858251 4.5999576,12.794777 5.4898163,11.343625 6.8203335,9.6863755 7.8546415,11.754994 9.308998,13.495677 11.121115,14.942235 13.219857,12.251871 14.35044,10.697602 15.726584,9.3992661 Z" />
    <path
       id="path1354"
       style="display:inline;fill:#000000"
       d="m 3.6015835,-13.491359 c -0.7433631,0.06512 -3.41011917,2.390432 -3.8789062,3.8046876 -0.4999995,1.5084385 -0.5,7.5429688 -0.5,7.5429688 -2.4999964,4.5252954 -2.999987,11.0618146 -3,12.5703126 0,5.640894 0.9999066,10.055469 5.0703125,13.072266 4.0989559,3.038096 9.5659452,3.008312 14.4316402,3.007812 4.866696,-4e-4 10.331645,0.03108 14.431641,-3.007812 4.070396,-3.016797 5.070313,-7.431372 5.070313,-13.072266 0,-1.508498 -0.500003,-8.0450172 -3,-12.5703126 0,0 -1e-6,-6.0345303 -0.5,-7.5429688 -0.5,-1.5085386 -3.500001,-4.0542276 -4,-3.7871096 -0.4975,0.265838 -0.4999,8.2375903 -0.5,8.3125003 -3.547797,-2.6045274 -7.525858,-3.9027738 -11.501954,-3.9023438 -3.982496,4.3e-4 -7.9620162,1.3037263 -11.5019527,3.9023438 -10e-6,-0.0749 -0.00249,-8.0466873 -0.5,-8.3125003 -0.031246,-0.01669 -0.071536,-0.02192 -0.1210938,-0.01758 z m 2.6210938,13.14843763 c 0.8281684,0 1.4980469,1.79155437 1.4980469,3.99999997 0,2.2084456 -0.6698785,3.9980469 -1.4980469,3.9980469 -0.8281684,0 -1.5,-1.7896013 -1.5,-3.9980469 0,-2.2084456 0.6718316,-3.99999997 1.5,-3.99999997 z m 19.0058597,0 c 0.828198,0 1.5,1.79155437 1.5,3.99999997 0,2.2084456 -0.671802,3.9980469 -1.5,3.9980469 -0.828198,0 -1.5,-1.7896013 -1.5,-3.9980469 0,-2.2084456 0.671802,-3.99999997 1.5,-3.99999997 z M 15.718771,11.953954 c 1.658596,1.679406 3.189285,3.627079 4.613281,5.509765 1.812096,-1.446556 3.26453,-3.154037 4.298828,-5.222656 1.330498,1.657249 2.81947,3.288211 4.759766,4.230469 0.365,-1.217798 0.836296,-2.100805 2.058594,-3.226563 -0.855798,1.333618 -1.042258,3.061503 -1.347656,4.587891 -2.089196,-0.774138 -3.83059,-2.183996 -5.304688,-3.826172 -1.284798,1.883766 -2.780298,3.563125 -4.683594,4.832031 -0.627598,-0.836778 -2.886333,-3.730699 -4.394531,-5.447265 -1.571196,1.721166 -2.985816,3.584579 -4.382812,5.447265 C 9.4326324,17.569813 7.9391453,15.890454 6.6543179,14.006688 5.1801909,15.648864 3.4368331,17.058722 1.3476773,17.83286 1.0914879,16.552322 0.72439573,14.370737 0.00197417,13.244969 c 1.22226463,1.125758 1.69362453,2.008765 2.05859373,3.226563 1.9402762,-0.942258 3.4292484,-2.57322 4.7597656,-4.230469 1.034308,2.068619 2.4867119,3.7761 4.2988285,5.222656 2.085396,-2.757134 4.050011,-4.914397 4.599609,-5.509765 z" />
  </g>
</svg>
