<svg width="24" height="24" viewBox="0 0 24 24" fill="none" xmlns="http://www.w3.org/2000/svg">
<path fill-rule="evenodd" clip-rule="evenodd" d="M11.7361 8.73926C11.7361 9.99785 11.1597 10.8064 10.0556 11.3408C11.5694 11.7732 12.3021 12.9299 12.3021 14.4943C12.3021 17.0256 10.2014 18.1119 7.96528 18.1119H2V5.65254H7.80208C9.90972 5.65254 11.7361 6.25723 11.7361 8.73926ZM7.24306 7.7795H4.70486V10.6869H7.44792C8.41319 10.6869 9.09722 10.2615 9.09722 9.20332C9.09722 8.05723 8.21875 7.7795 7.24306 7.7795ZM7.59722 15.9955H4.70486V12.5643H7.65278C8.84375 12.5643 9.59722 13.067 9.59722 14.3432C9.59722 15.6018 8.69792 15.9955 7.59722 15.9955ZM15.0556 7.5334H20.0451V6.30645H15.0556V7.5334ZM22 13.7314C22 11.0631 20.4583 8.8377 17.6632 8.8377C14.9479 8.8377 13.1042 10.9049 13.1042 13.6119C13.1042 16.4209 14.8507 18.3475 17.6632 18.3475C19.7917 18.3475 21.1701 17.3772 21.8333 15.3135H19.6736C19.441 16.0834 18.4826 16.4912 17.7396 16.4912C16.3056 16.4912 15.5521 15.6404 15.5521 14.1955H21.9792C21.9896 14.0479 22 13.8897 22 13.7314ZM17.5868 10.708C16.4132 10.708 15.6354 11.4498 15.5556 12.6346H19.5382C19.434 11.4393 18.816 10.708 17.5868 10.708Z" fill="#A4A4A4"/>
<mask id="mask0" mask-type="alpha" maskUnits="userSpaceOnUse" x="2" y="5" width="20" height="14">
<path fill-rule="evenodd" clip-rule="evenodd" d="M11.7361 8.73926C11.7361 9.99785 11.1597 10.8064 10.0556 11.3408C11.5694 11.7732 12.3021 12.9299 12.3021 14.4943C12.3021 17.0256 10.2014 18.1119 7.96528 18.1119H2V5.65254H7.80208C9.90972 5.65254 11.7361 6.25723 11.7361 8.73926ZM7.24306 7.7795H4.70486V10.6869H7.44792C8.41319 10.6869 9.09722 10.2615 9.09722 9.20332C9.09722 8.05723 8.21875 7.7795 7.24306 7.7795ZM7.59722 15.9955H4.70486V12.5643H7.65278C8.84375 12.5643 9.59722 13.067 9.59722 14.3432C9.59722 15.6018 8.69792 15.9955 7.59722 15.9955ZM15.0556 7.5334H20.0451V6.30645H15.0556V7.5334ZM22 13.7314C22 11.0631 20.4583 8.8377 17.6632 8.8377C14.9479 8.8377 13.1042 10.9049 13.1042 13.6119C13.1042 16.4209 14.8507 18.3475 17.6632 18.3475C19.7917 18.3475 21.1701 17.3772 21.8333 15.3135H19.6736C19.441 16.0834 18.4826 16.4912 17.7396 16.4912C16.3056 16.4912 15.5521 15.6404 15.5521 14.1955H21.9792C21.9896 14.0479 22 13.8897 22 13.7314ZM17.5868 10.708C16.4132 10.708 15.6354 11.4498 15.5556 12.6346H19.5382C19.434 11.4393 18.816 10.708 17.5868 10.708Z" fill="white"/>
</mask>
<g mask="url(#mask0)">
<rect width="24" height="24" fill="#A4A4A4"/>
</g>
</svg>
