<svg width="39" height="40" viewBox="0 0 39 40" fill="none" xmlns="http://www.w3.org/2000/svg">
<!-- надо будет обнулить высоту и ширину, чтобы сверстать более подробно css файл -->
<path fill-rule="evenodd" clip-rule="evenodd" d="M3 11.2899C0.500002 15.7899 1.32164e-05 22.2899 0 23.7899C0 29.3993 1 33.7899 5.07041 36.7899C11 40.7899 27.5 40.7899 33.5 36.7196C37 33.7899 38.5 29.3564 38.5 23.7899C38.5 22.7899 38 14.7899 36 11.2899C36 11.2899 36 4.2899 35.5 2.78991C35 1.28992 32 -0.210102 31.5 0.0243225C31 0.258747 31 8.28991 31 8.28991C24.5 2.78991 14.9996 3.18169 8 8.28991C8 8.28991 8 0.289917 7.5 0.024332C7 -0.241253 4 2.28992 3.5 3.78991C3 5.2899 3 11.2899 3 11.2899ZM10 21.7899C10.8284 21.7899 11.5 19.9991 11.5 17.7899C11.5 15.5808 10.8284 13.7899 10 13.7899C9.17157 13.7899 8.5 15.5808 8.5 17.7899C8.5 19.9991 9.17157 21.7899 10 21.7899ZM29 21.7899C29.8284 21.7899 30.5 19.9991 30.5 17.7899C30.5 15.5808 29.8284 13.7899 29 13.7899C28.1716 13.7899 27.5 15.5808 27.5 17.7899C27.5 19.9991 28.1716 21.7899 29 21.7899ZM15.1162 32.9683C13.2122 31.699 11.717 30.0199 10.4318 28.1355C8.95722 29.7783 7.21439 31.1879 5.12457 31.9623C4.86832 30.6813 4.5 28.5 3.77735 27.3739C5 28.5 5.47209 29.3835 5.83717 30.6017C7.77806 29.6591 9.26732 28.0262 10.5983 26.3684C11.6329 28.4377 13.0853 30.1472 14.898 31.5942C16.984 28.8362 18.9503 26.6784 19.5 26.0828C21.2057 27.8112 22.7031 29.7413 24.1639 31.6761C26.1513 30.6365 27.457 28.2579 28.4146 26.3427C29.5335 27.8345 30.6792 29.4088 32.2008 30.5158C32.5 30.0243 33.5 28.1355 35 27.3739C33.6581 29.0583 33.2282 30.4386 32.8339 32.0159C31.0877 31.1428 29.7686 29.717 28.574 28.2056C27.4396 30.1719 26.0518 32.133 23.8162 32.8782C22.4413 31.045 21.0463 29.2137 19.5 27.5198C17.9284 29.2415 16.5137 31.105 15.1162 32.9683Z" fill="#080808"/>
</svg>
