
<svg xmlns="http://www.w3.org/2000/svg" version="1.1" xmlns:xlink="http://www.w3.org/1999/xlink" preserveAspectRatio="none" x="0px" y="0px" width="39px" height="40px" viewBox="0 0 39 40">
<defs>
<g id="ejexlogo_svg_1_Layer0_0_FILL">
<path fill="#000000" stroke="none" d="
M 36.45 11.35
Q 36.45 4.35 35.95 2.85 35.6 1.85 33.95 0.8 32.4 -0.15 31.85 0.05 31.55 0.2 31.4 4.3 31.35 6.35 31.35 8.35 26.5 4.3 19.9 4.4 13.5 4.45 8.05 8.35 8.05 0.35 7.55 0.05 7.15 -0.2 5.55 1.25 3.9 2.75 3.5 3.8 2.9 5.35 3 11.4 1.4 14.3 0.55 18.85 0 21.9 0 24 0 28.6 1 31.5 2.2 34.9 5.05 37 9.6 40 19.45 40 29.3 40 33.85 36.95 38.95 32.65 38.95 23.95 38.95 22.05 38.45 18.65 37.75 13.65 36.45 11.35
M 28 13.05
Q 28.05 13 28.15 12.95 28.7 12.35 29.35 12.35 30.1 12.35 30.7 13.05 31.25 13.7 31.25 14.65 31.25 14.85 31.25 15.05 31.2431640625 15.097265625 31.2 15.15 31.11953125 15.787109375 30.7 16.3 30.1 16.95 29.35 16.95 28.55 16.95 28.1 16.4 28.05 16.35 28 16.3 27.95 16.25 27.9 16.15 27.55859375 15.656640625 27.45 15.05 27.45 14.8548828125 27.45 14.65 27.45 13.7 28 13.05
M 27.1 21.5
Q 27.5353515625 20.8904296875 28.05 19.95 28.43046875 19.2599609375 28.85 18.4 29.7244140625 19.58515625 30.3 20.5 31.0958984375 21.66953125 31.9 22.4 34.1 20.15 34.85 19 32.9794921875 32.2890625 33.15 35 31.05 34 28.85 31.25 26.8 34.95 24.05 35.95 20.8 31.8 19.65 30.55
L 15.3 36.1
Q 12.6 34.25 10.6 31.2 8.1 34.05 5.2 35 5.15546875 33.135546875 4.95 31.8 4.74453125 30.464453125 3.85 18.65 5.4 20.85 6.95 22.35 7.3779296875 22.0912109375 8.95 20.5 9.8484375 19.603125 10.8 18.4 11.09375 19.0189453125 11.45 19.6 12.8294921875 21.8431640625 15.2 23.7 16.95 21.35 19.85 18.2 21.25 19.55 24.6 23.8 25.95 23.15 27.1 21.5
M 10 16.95
Q 9.25 16.95 8.7 16.3 8.2 15.7 8.15 15
L 8.15 14.95
Q 8.1 14.7876953125 8.1 14.65 8.1 13.7 8.7 13.05 9.25 12.35 10 12.35 10.7 12.35 11.25 12.95 11.3 13 11.35 13.05 11.9 13.7 11.9 14.65 11.9 14.854296875 11.85 15.05 11.8046875 15.576953125 11.55 16.05 11.45 16.15 11.35 16.3 11.3 16.35 11.25 16.4 10.75 16.95 10 16.95 Z"/>
</g>
</defs>

<g transform="matrix( 1, 0, 0, 1, 0.05,0) ">
<g transform="matrix( 1, 0, 0, 1, 0,0) ">
<use xlink:href="#ejexlogo_svg_1_Layer0_0_FILL"/>
</g>
</g>
</svg>
