<svg width="24" height="24" viewBox="0 0 24 24" fill="none" xmlns="http://www.w3.org/2000/svg">
<path fill-rule="evenodd" clip-rule="evenodd" d="M14.4781 13.1782C13.7757 13.7211 12.751 14.5129 12 14.5C11.249 14.5129 10.2243 13.7211 9.52185 13.1782C9.37665 13.066 9.24522 12.9644 9.13281 12.8828C4.32848 9.39632 3.63806 8.85601 2.61107 8.05231C2.53 7.98886 2.44683 7.92378 2.35938 7.85547C2.13281 7.67578 2 7.40625 2 7.11719V6.375C2 5.33984 2.83984 4.5 3.875 4.5H20.125C21.1602 4.5 22 5.33984 22 6.375V7.11719C22 7.40625 21.8672 7.67969 21.6406 7.85547C21.5736 7.90804 21.5091 7.95869 21.4461 8.00813C20.386 8.84056 19.7601 9.33202 14.8672 12.8828C14.7548 12.9644 14.6233 13.066 14.4781 13.1782ZM22 9.63672C22 9.44531 21.7734 9.33203 21.6211 9.45312C20.7461 10.1328 19.5898 11 15.6055 13.8945C15.4846 13.9827 15.3492 14.0874 15.2016 14.2016C14.3808 14.8365 13.182 15.7638 12 15.7539C10.8235 15.7605 9.64421 14.8506 8.81036 14.2072C8.66136 14.0922 8.52339 13.9857 8.39844 13.8945C4.41406 11 3.25391 10.1367 2.37891 9.45703C2.22266 9.33594 2 9.44531 2 9.64062V17.625C2 18.6602 2.83984 19.5 3.875 19.5H20.125C21.1602 19.5 22 18.6602 22 17.625V9.63672Z" fill="#A4A4A4"/>
<mask id="mask0" mask-type="alpha" maskUnits="userSpaceOnUse" x="2" y="4" width="20" height="16">
<path fill-rule="evenodd" clip-rule="evenodd" d="M14.4781 13.1782C13.7757 13.7211 12.751 14.5129 12 14.5C11.249 14.5129 10.2243 13.7211 9.52185 13.1782C9.37665 13.066 9.24522 12.9644 9.13281 12.8828C4.32848 9.39632 3.63806 8.85601 2.61107 8.05231C2.53 7.98886 2.44683 7.92378 2.35938 7.85547C2.13281 7.67578 2 7.40625 2 7.11719V6.375C2 5.33984 2.83984 4.5 3.875 4.5H20.125C21.1602 4.5 22 5.33984 22 6.375V7.11719C22 7.40625 21.8672 7.67969 21.6406 7.85547C21.5736 7.90804 21.5091 7.95869 21.4461 8.00813C20.386 8.84056 19.7601 9.33202 14.8672 12.8828C14.7548 12.9644 14.6233 13.066 14.4781 13.1782ZM22 9.63672C22 9.44531 21.7734 9.33203 21.6211 9.45312C20.7461 10.1328 19.5898 11 15.6055 13.8945C15.4846 13.9827 15.3492 14.0874 15.2016 14.2016C14.3808 14.8365 13.182 15.7638 12 15.7539C10.8235 15.7605 9.64421 14.8506 8.81036 14.2072C8.66136 14.0922 8.52339 13.9857 8.39844 13.8945C4.41406 11 3.25391 10.1367 2.37891 9.45703C2.22266 9.33594 2 9.44531 2 9.64062V17.625C2 18.6602 2.83984 19.5 3.875 19.5H20.125C21.1602 19.5 22 18.6602 22 17.625V9.63672Z" fill="white"/>
</mask>
<g mask="url(#mask0)">
<rect width="24" height="24" fill="#A4A4A4"/>
</g>
</svg>
