<svg width="24" height="24" viewBox="0 0 24 24" fill="none" xmlns="http://www.w3.org/2000/svg">
<path fill-rule="evenodd" clip-rule="evenodd" d="M20.8073 16.5779C21.3733 15.4334 21.5 14.1131 21.5 12.867C21.5 11.2302 21.0448 9.67165 19.9562 8.40602C20.1581 7.80055 20.261 7.16383 20.261 6.52321C20.261 5.68336 20.071 5.26149 19.6831 4.49977C17.9098 4.49977 16.7619 4.8318 15.416 5.87477C14.379 5.62868 13.3023 5.5154 12.2335 5.5154C11.05 5.5154 9.87042 5.63649 8.7225 5.90602C7.35687 4.85133 6.20896 4.49977 4.41583 4.49977C4.03188 5.26149 3.83792 5.68336 3.83792 6.52321C3.83792 7.16383 3.93687 7.81227 4.14271 8.42946C3.05021 9.68336 2.5 11.2302 2.5 12.867C2.5 14.1131 2.72167 15.4451 3.29958 16.5779C4.80903 19.5079 8.95113 19.5033 11.9361 19.5L12.2296 19.4998L12.4285 19.4998C15.3648 19.5014 19.3405 19.5035 20.8073 16.5779ZM8.41375 16.992C9.435 16.992 9.86646 15.656 9.86646 14.8396C9.86646 14.0232 9.435 12.6873 8.41375 12.6873C7.3925 12.6873 6.96104 14.0232 6.96104 14.8396C6.96104 15.656 7.3925 16.992 8.41375 16.992ZM18.9548 14.8396C18.9548 13.1248 17.8979 11.6131 16.0454 11.6131C15.454 11.6131 14.8825 11.696 14.2974 11.781C14.1423 11.8035 13.9863 11.8261 13.8287 11.8474C13.239 11.9373 12.6492 11.9724 12.0435 11.9724C11.4419 11.9724 10.8521 11.9373 10.2583 11.8474C10.1126 11.8274 9.96739 11.8062 9.82251 11.785C9.23173 11.6987 8.64563 11.6131 8.04167 11.6131C6.18917 11.6131 5.13229 13.1248 5.13229 14.8396C5.13229 18.2693 8.31479 18.7966 11.0856 18.7966H12.9935C15.7762 18.7966 18.9548 18.2732 18.9548 14.8396ZM14.2325 14.8396C14.2325 14.0232 14.664 12.6873 15.6852 12.6873C16.7065 12.6873 17.1379 14.0232 17.1379 14.8396C17.1379 15.656 16.7065 16.992 15.6852 16.992C14.664 16.992 14.2325 15.656 14.2325 14.8396Z" fill="#A4A4A4"/>
<mask id="mask0" mask-type="alpha" maskUnits="userSpaceOnUse" x="2" y="4" width="20" height="16">
<path fill-rule="evenodd" clip-rule="evenodd" d="M20.8073 16.5779C21.3733 15.4334 21.5 14.1131 21.5 12.867C21.5 11.2302 21.0448 9.67165 19.9562 8.40602C20.1581 7.80055 20.261 7.16383 20.261 6.52321C20.261 5.68336 20.071 5.26149 19.6831 4.49977C17.9098 4.49977 16.7619 4.8318 15.416 5.87477C14.379 5.62868 13.3023 5.5154 12.2335 5.5154C11.05 5.5154 9.87042 5.63649 8.7225 5.90602C7.35687 4.85133 6.20896 4.49977 4.41583 4.49977C4.03188 5.26149 3.83792 5.68336 3.83792 6.52321C3.83792 7.16383 3.93687 7.81227 4.14271 8.42946C3.05021 9.68336 2.5 11.2302 2.5 12.867C2.5 14.1131 2.72167 15.4451 3.29958 16.5779C4.80903 19.5079 8.95113 19.5033 11.9361 19.5L12.2296 19.4998L12.4285 19.4998C15.3648 19.5014 19.3405 19.5035 20.8073 16.5779ZM8.41375 16.992C9.435 16.992 9.86646 15.656 9.86646 14.8396C9.86646 14.0232 9.435 12.6873 8.41375 12.6873C7.3925 12.6873 6.96104 14.0232 6.96104 14.8396C6.96104 15.656 7.3925 16.992 8.41375 16.992ZM18.9548 14.8396C18.9548 13.1248 17.8979 11.6131 16.0454 11.6131C15.454 11.6131 14.8825 11.696 14.2974 11.781C14.1423 11.8035 13.9863 11.8261 13.8287 11.8474C13.239 11.9373 12.6492 11.9724 12.0435 11.9724C11.4419 11.9724 10.8521 11.9373 10.2583 11.8474C10.1126 11.8274 9.96739 11.8062 9.82251 11.785C9.23173 11.6987 8.64563 11.6131 8.04167 11.6131C6.18917 11.6131 5.13229 13.1248 5.13229 14.8396C5.13229 18.2693 8.31479 18.7966 11.0856 18.7966H12.9935C15.7762 18.7966 18.9548 18.2732 18.9548 14.8396ZM14.2325 14.8396C14.2325 14.0232 14.664 12.6873 15.6852 12.6873C16.7065 12.6873 17.1379 14.0232 17.1379 14.8396C17.1379 15.656 16.7065 16.992 15.6852 16.992C14.664 16.992 14.2325 15.656 14.2325 14.8396Z" fill="white"/>
</mask>
<g mask="url(#mask0)">
<rect width="24" height="24" fill="#A4A4A4"/>
</g>
</svg>
