<svg width="24" height="24" viewBox="0 0 24 24" fill="none" xmlns="http://www.w3.org/2000/svg">
<path fill-rule="evenodd" clip-rule="evenodd" d="M20.9368 8.39062C20.8685 6.98828 20.5392 5.74609 19.4831 4.72266C18.431 3.69922 17.154 3.37891 15.7124 3.30859C14.2267 3.22656 9.77334 3.22656 8.28756 3.30859C6.84997 3.375 5.57301 3.69531 4.5169 4.71875C3.46079 5.74219 3.13553 6.98438 3.06325 8.38672C2.97892 9.83203 2.97892 14.1641 3.06325 15.6094C3.13151 17.0117 3.46079 18.2539 4.5169 19.2773C5.57301 20.3008 6.84596 20.6211 8.28756 20.6914C9.77334 20.7734 14.2267 20.7734 15.7124 20.6914C17.154 20.625 18.431 20.3047 19.4831 19.2773C20.5352 18.2539 20.8645 17.0117 20.9368 15.6094C21.0211 14.1641 21.0211 9.83594 20.9368 8.39062ZM16.8047 8.375C17.399 8.375 17.8809 7.91016 17.8809 7.32812C17.8809 6.75 17.399 6.28125 16.8047 6.28125C16.2104 6.28125 15.7285 6.75 15.7285 7.32812C15.7285 7.90625 16.2064 8.375 16.8047 8.375ZM12.002 7.51172C9.44808 7.51172 7.38806 9.51562 7.38806 12C7.38806 14.4844 9.44808 16.4883 12.002 16.4883C14.5559 16.4883 16.616 14.4844 16.616 12C16.616 9.51562 14.5559 7.51172 12.002 7.51172ZM12.002 14.918C10.3516 14.918 9.00234 13.6094 9.00234 12C9.00234 10.3906 10.3476 9.08203 12.002 9.08203C13.6564 9.08203 15.0017 10.3906 15.0017 12C15.0017 13.6094 13.6524 14.918 12.002 14.918ZM17.3066 18.8242C18.0977 18.5156 18.7041 17.9258 19.0173 17.1602C19.4203 16.1751 19.3978 14.0204 19.3833 12.6237C19.3809 12.392 19.3787 12.1812 19.3787 12C19.3787 11.8188 19.3809 11.608 19.3833 11.3764C19.3978 9.98038 19.4203 7.82821 19.0173 6.83984C18.7001 6.07031 18.0937 5.48047 17.3066 5.17578C16.2908 4.7859 14.0651 4.80667 12.6297 4.82007C12.3968 4.82224 12.1847 4.82422 12.002 4.82422C11.8157 4.82422 11.599 4.82208 11.3609 4.81974C9.92584 4.80559 7.71341 4.78379 6.69738 5.17578C5.9063 5.48438 5.29994 6.07422 4.98673 6.83984C4.58593 7.82798 4.60728 9.9931 4.62105 11.3894C4.62329 11.616 4.62532 11.8222 4.62532 12C4.62532 12.1812 4.62313 12.392 4.62071 12.6236C4.60617 14.0196 4.58376 16.1718 4.98673 17.1602C5.30396 17.9297 5.91032 18.5195 6.69738 18.8242C7.71318 19.2141 9.93892 19.1933 11.3743 19.1799C11.6072 19.1778 11.8193 19.1758 12.002 19.1758C12.1883 19.1758 12.405 19.1779 12.6431 19.1803C14.0782 19.1944 16.2906 19.2162 17.3066 18.8242Z" fill="#A4A4A4"/>
<mask id="mask0" mask-type="alpha" maskUnits="userSpaceOnUse" x="3" y="3" width="18" height="18">
<path fill-rule="evenodd" clip-rule="evenodd" d="M20.9368 8.39062C20.8685 6.98828 20.5392 5.74609 19.4831 4.72266C18.431 3.69922 17.154 3.37891 15.7124 3.30859C14.2267 3.22656 9.77334 3.22656 8.28756 3.30859C6.84997 3.375 5.57301 3.69531 4.5169 4.71875C3.46079 5.74219 3.13553 6.98438 3.06325 8.38672C2.97892 9.83203 2.97892 14.1641 3.06325 15.6094C3.13151 17.0117 3.46079 18.2539 4.5169 19.2773C5.57301 20.3008 6.84596 20.6211 8.28756 20.6914C9.77334 20.7734 14.2267 20.7734 15.7124 20.6914C17.154 20.625 18.431 20.3047 19.4831 19.2773C20.5352 18.2539 20.8645 17.0117 20.9368 15.6094C21.0211 14.1641 21.0211 9.83594 20.9368 8.39062ZM16.8047 8.375C17.399 8.375 17.8809 7.91016 17.8809 7.32812C17.8809 6.75 17.399 6.28125 16.8047 6.28125C16.2104 6.28125 15.7285 6.75 15.7285 7.32812C15.7285 7.90625 16.2064 8.375 16.8047 8.375ZM12.002 7.51172C9.44808 7.51172 7.38806 9.51562 7.38806 12C7.38806 14.4844 9.44808 16.4883 12.002 16.4883C14.5559 16.4883 16.616 14.4844 16.616 12C16.616 9.51562 14.5559 7.51172 12.002 7.51172ZM12.002 14.918C10.3516 14.918 9.00234 13.6094 9.00234 12C9.00234 10.3906 10.3476 9.08203 12.002 9.08203C13.6564 9.08203 15.0017 10.3906 15.0017 12C15.0017 13.6094 13.6524 14.918 12.002 14.918ZM17.3066 18.8242C18.0977 18.5156 18.7041 17.9258 19.0173 17.1602C19.4203 16.1751 19.3978 14.0204 19.3833 12.6237C19.3809 12.392 19.3787 12.1812 19.3787 12C19.3787 11.8188 19.3809 11.608 19.3833 11.3764C19.3978 9.98038 19.4203 7.82821 19.0173 6.83984C18.7001 6.07031 18.0937 5.48047 17.3066 5.17578C16.2908 4.7859 14.0651 4.80667 12.6297 4.82007C12.3968 4.82224 12.1847 4.82422 12.002 4.82422C11.8157 4.82422 11.599 4.82208 11.3609 4.81974C9.92584 4.80559 7.71341 4.78379 6.69738 5.17578C5.9063 5.48438 5.29994 6.07422 4.98673 6.83984C4.58593 7.82798 4.60728 9.9931 4.62105 11.3894C4.62329 11.616 4.62532 11.8222 4.62532 12C4.62532 12.1812 4.62313 12.392 4.62071 12.6236C4.60617 14.0196 4.58376 16.1718 4.98673 17.1602C5.30396 17.9297 5.91032 18.5195 6.69738 18.8242C7.71318 19.2141 9.93892 19.1933 11.3743 19.1799C11.6072 19.1778 11.8193 19.1758 12.002 19.1758C12.1883 19.1758 12.405 19.1779 12.6431 19.1803C14.0782 19.1944 16.2906 19.2162 17.3066 18.8242Z" fill="white"/>
</mask>
<g mask="url(#mask0)">
<rect width="154" height="154" fill="#A4A4A4"/>
</g>
</svg>
