<svg width="20" height="20" viewBox="0 0 20 20" fill="none" xmlns="http://www.w3.org/2000/svg">
<path fill-rule="evenodd" clip-rule="evenodd" d="M18.375 6.675C18.5375 6.275 19.0625 4.6875 18.2125 2.5375C18.2125 2.5375 16.9 2.125 13.9125 4.1625C12.6625 3.8125 11.325 3.7625 10 3.7625C8.675 3.7625 7.3375 3.8125 6.0875 4.1625C3.1 2.1125 1.7875 2.5375 1.7875 2.5375C0.9375 4.6875 1.4625 6.275 1.625 6.675C0.6125 7.7625 0 9.1625 0 10.8625C0 17.3 4.1625 18.75 9.975 18.75C15.7875 18.75 20 17.3 20 10.8625C20 9.1625 19.3875 7.7625 18.375 6.675V6.675ZM10 17.525C5.875 17.525 2.525 17.3375 2.525 13.3375C2.525 12.3875 3 11.4875 3.8 10.75C5.1375 9.525 7.425 10.175 10 10.175C12.5875 10.175 14.85 9.525 16.2 10.75C17.0125 11.4875 17.475 12.375 17.475 13.3375C17.475 17.325 14.125 17.525 10 17.525V17.525ZM6.8625 11.2625C6.0375 11.2625 5.3625 12.2625 5.3625 13.4875C5.3625 14.7125 6.0375 15.725 6.8625 15.725C7.6875 15.725 8.3625 14.725 8.3625 13.4875C8.3625 12.25 7.6875 11.2625 6.8625 11.2625V11.2625ZM13.1375 11.2625C12.3125 11.2625 11.6375 12.25 11.6375 13.4875C11.6375 14.725 12.3125 15.725 13.1375 15.725C13.9625 15.725 14.6375 14.725 14.6375 13.4875C14.6375 12.25 13.975 11.2625 13.1375 11.2625V11.2625Z" fill="#A4A4A4"/>
</svg>
