<svg width="40" height="40" viewBox="0 0 40 40" fill="none" xmlns="http://www.w3.org/2000/svg">
<path d="M7.87695 0.00188066C7.13359 0.0670007 4.46683 2.39231 3.99805 3.80657C3.49805 5.31501 3.49805 11.3495 3.49805 11.3495C0.99805 15.8748 0.49806 22.4114 0.498047 23.9199C0.498047 29.5607 1.49795 33.9753 5.56836 36.9921C9.66732 40.0302 15.1343 40.0004 20 39.9999C24.8667 39.9995 30.3316 40.031 34.4316 36.9921C38.502 33.9753 39.502 29.5607 39.502 23.9199C39.502 22.4114 39.002 15.8748 36.502 11.3495C36.502 11.3495 36.502 5.31501 36.002 3.80657C35.502 2.29803 32.502 -0.247659 32.002 0.0194588C31.5045 0.285297 31.5021 8.25705 31.502 8.33196C27.9542 5.72743 23.9761 4.42919 20 4.42962C16.0175 4.43005 12.038 5.73334 8.49805 8.33196C8.49804 8.25706 8.49556 0.285272 7.99805 0.0194588C7.9668 0.00276878 7.92651 -0.00245934 7.87695 0.00188066ZM10.498 13.1503C11.3262 13.1503 11.9961 14.9419 11.9961 17.1503C11.9961 19.3588 11.3262 21.1484 10.498 21.1484C9.66988 21.1484 8.99805 19.3588 8.99805 17.1503C8.99805 14.9419 9.66988 13.1503 10.498 13.1503ZM29.5039 13.1503C30.3321 13.1503 31.0039 14.9419 31.0039 17.1503C31.0039 19.3588 30.3321 21.1484 29.5039 21.1484C28.6757 21.1484 28.0039 19.3588 28.0039 17.1503C28.0039 14.9419 28.6757 13.1503 29.5039 13.1503ZM19.9941 25.4472C21.6527 27.1266 23.1834 29.0743 24.6074 30.957C26.4195 29.5104 27.872 27.8029 28.9062 25.7343C30.2367 27.3916 31.7257 29.0225 33.666 29.9648C34.031 28.747 34.5023 27.864 35.7246 26.7382C34.8688 28.0718 34.6824 29.7997 34.377 31.3261C32.2878 30.552 30.5464 29.1421 29.0723 27.4999C27.7875 29.3837 26.292 31.0631 24.3887 32.332C23.7611 31.4952 21.5023 28.6013 19.9941 26.8847C18.4229 28.6059 17.0083 30.4693 15.6113 32.332C13.708 31.0631 12.2145 29.3837 10.9297 27.4999C9.45556 29.1421 7.7122 30.552 5.62305 31.3261C5.36686 30.0456 4.99977 27.864 4.27734 26.7382C5.49961 27.864 5.97097 28.747 6.33594 29.9648C8.27621 29.0225 9.76519 27.3916 11.0957 25.7343C12.13 27.8029 13.5824 29.5104 15.3945 30.957C17.4799 28.1998 19.4445 26.0426 19.9941 25.4472Z" fill="black"/>
</svg>
