<svg width="24" height="24" viewBox="0 0 24 24" fill="none" xmlns="http://www.w3.org/2000/svg">
<path fill-rule="evenodd" clip-rule="evenodd" d="M3.66307 3.25038C13.1035 3.57987 20.6623 10.9717 20.9996 20.1053C21.0126 20.4581 20.7195 20.75 20.3565 20.75H18.4252C18.0786 20.75 17.7966 20.483 17.7824 20.1464C17.4675 12.6796 11.3022 6.68444 3.62088 6.37823C3.27462 6.3644 3 6.09018 3 5.75327V3.87561C3 3.52268 3.30025 3.23772 3.66307 3.25038ZM15.2039 20.0941C14.8682 14.055 9.89287 9.21178 3.67464 8.8851C3.30761 8.86581 3 9.15252 3 9.50987V11.3876C3 11.7163 3.26076 11.9919 3.59814 12.0133C8.09138 12.2978 11.693 15.7907 11.9863 20.1684C12.0083 20.4964 12.2918 20.7499 12.6299 20.7499H14.5612C14.9288 20.75 15.2237 20.4509 15.2039 20.0941ZM8.14611 18.2484C8.14611 19.63 6.99411 20.75 5.57303 20.75C4.15196 20.75 3 19.63 3 18.2484C3 16.8668 4.152 15.7468 5.57307 15.7468C6.99415 15.7468 8.14611 16.8668 8.14611 18.2484Z" fill="#A4A4A4"/>
<mask id="mask0" mask-type="alpha" maskUnits="userSpaceOnUse" x="3" y="3" width="18" height="18">
<path fill-rule="evenodd" clip-rule="evenodd" d="M3.66307 3.25038C13.1035 3.57987 20.6623 10.9717 20.9996 20.1053C21.0126 20.4581 20.7195 20.75 20.3565 20.75H18.4252C18.0786 20.75 17.7966 20.483 17.7824 20.1464C17.4675 12.6796 11.3022 6.68444 3.62088 6.37823C3.27462 6.3644 3 6.09018 3 5.75327V3.87561C3 3.52268 3.30025 3.23772 3.66307 3.25038ZM15.2039 20.0941C14.8682 14.055 9.89287 9.21178 3.67464 8.8851C3.30761 8.86581 3 9.15252 3 9.50987V11.3876C3 11.7163 3.26076 11.9919 3.59814 12.0133C8.09138 12.2978 11.693 15.7907 11.9863 20.1684C12.0083 20.4964 12.2918 20.7499 12.6299 20.7499H14.5612C14.9288 20.75 15.2237 20.4509 15.2039 20.0941ZM8.14611 18.2484C8.14611 19.63 6.99411 20.75 5.57303 20.75C4.15196 20.75 3 19.63 3 18.2484C3 16.8668 4.152 15.7468 5.57307 15.7468C6.99415 15.7468 8.14611 16.8668 8.14611 18.2484Z" fill="white"/>
</mask>
<g mask="url(#mask0)">
<rect width="24" height="24" fill="#A4A4A4"/>
</g>
</svg>
