<svg width="24" height="24" viewBox="0 0 24 24" fill="none" xmlns="http://www.w3.org/2000/svg">
<path fill-rule="evenodd" clip-rule="evenodd" d="M17.8328 15.3971L21.7273 19.2913C22.0906 19.6584 22.0906 20.2521 21.7234 20.6193L20.6179 21.7246C20.2546 22.0918 19.6609 22.0918 19.2937 21.7246L15.3992 17.8305C15.2234 17.6547 15.1257 17.4165 15.1257 17.1665V16.5298C13.7468 17.6079 12.0125 18.2484 10.1257 18.2484C5.63745 18.2484 2.00073 14.612 2.00073 10.1242C2.00073 5.63636 5.63745 2 10.1257 2C14.614 2 18.2507 5.63636 18.2507 10.1242C18.2507 12.0107 17.6101 13.7449 16.532 15.1237H17.1687C17.4187 15.1237 17.657 15.2214 17.8328 15.3971ZM5.12573 10.1242C5.12573 12.8896 7.36401 15.1237 10.1257 15.1237C12.8914 15.1237 15.1257 12.8857 15.1257 10.1242C15.1257 7.35885 12.8875 5.12469 10.1257 5.12469C7.36011 5.12469 5.12573 7.36276 5.12573 10.1242Z" fill="#101010"/>
<mask id="mask0" mask-type="alpha" maskUnits="userSpaceOnUse" x="2" y="2" width="20" height="20">
<path fill-rule="evenodd" clip-rule="evenodd" d="M17.8328 15.3971L21.7273 19.2913C22.0906 19.6584 22.0906 20.2521 21.7234 20.6193L20.6179 21.7246C20.2546 22.0918 19.6609 22.0918 19.2937 21.7246L15.3992 17.8305C15.2234 17.6547 15.1257 17.4165 15.1257 17.1665V16.5298C13.7468 17.6079 12.0125 18.2484 10.1257 18.2484C5.63745 18.2484 2.00073 14.612 2.00073 10.1242C2.00073 5.63636 5.63745 2 10.1257 2C14.614 2 18.2507 5.63636 18.2507 10.1242C18.2507 12.0107 17.6101 13.7449 16.532 15.1237H17.1687C17.4187 15.1237 17.657 15.2214 17.8328 15.3971ZM5.12573 10.1242C5.12573 12.8896 7.36401 15.1237 10.1257 15.1237C12.8914 15.1237 15.1257 12.8857 15.1257 10.1242C15.1257 7.35885 12.8875 5.12469 10.1257 5.12469C7.36011 5.12469 5.12573 7.36276 5.12573 10.1242Z" fill="white"/>
</mask>
<g mask="url(#mask0)">
<rect width="24" height="24" fill="#101010"/>
</g>
</svg>
