<svg width="24" height="24" viewBox="0 0 24 24" fill="none" xmlns="http://www.w3.org/2000/svg">
<path d="M19.9442 7.92639C19.9569 8.10405 19.9569 8.28174 19.9569 8.4594C19.9569 13.8781 15.8325 20.1218 8.29444 20.1218C5.9721 20.1218 3.81476 19.4492 2.00003 18.2817C2.32999 18.3198 2.64722 18.3325 2.98987 18.3325C4.90609 18.3325 6.67007 17.6853 8.0787 16.5812C6.27667 16.5431 4.76652 15.363 4.2462 13.7386C4.50003 13.7766 4.75382 13.802 5.02034 13.802C5.38835 13.802 5.7564 13.7512 6.09901 13.6624C4.22085 13.2817 2.81218 11.632 2.81218 9.6396V9.58885C3.35784 9.89342 3.99241 10.0838 4.66495 10.1091C3.56089 9.37307 2.83757 8.11674 2.83757 6.69542C2.83757 5.93401 3.04058 5.23604 3.39593 4.6269C5.4137 7.1142 8.44671 8.73854 11.8477 8.91624C11.7842 8.61167 11.7462 8.29444 11.7462 7.97717C11.7462 5.71827 13.5736 3.87819 15.8451 3.87819C17.0253 3.87819 18.0913 4.37311 18.8401 5.1726C19.7664 4.99495 20.6548 4.65229 21.4416 4.18276C21.137 5.13456 20.4898 5.93405 19.6396 6.44163C20.4644 6.35284 21.2639 6.12436 22 5.80713C21.4417 6.61928 20.7437 7.3426 19.9442 7.92639Z" fill="#A4A4A4"/>
<mask id="mask0" mask-type="alpha" maskUnits="userSpaceOnUse" x="2" y="3" width="20" height="18">
<path d="M19.9442 7.92639C19.9569 8.10405 19.9569 8.28174 19.9569 8.4594C19.9569 13.8781 15.8325 20.1218 8.29444 20.1218C5.9721 20.1218 3.81476 19.4492 2.00003 18.2817C2.32999 18.3198 2.64722 18.3325 2.98987 18.3325C4.90609 18.3325 6.67007 17.6853 8.0787 16.5812C6.27667 16.5431 4.76652 15.363 4.2462 13.7386C4.50003 13.7766 4.75382 13.802 5.02034 13.802C5.38835 13.802 5.7564 13.7512 6.09901 13.6624C4.22085 13.2817 2.81218 11.632 2.81218 9.6396V9.58885C3.35784 9.89342 3.99241 10.0838 4.66495 10.1091C3.56089 9.37307 2.83757 8.11674 2.83757 6.69542C2.83757 5.93401 3.04058 5.23604 3.39593 4.6269C5.4137 7.1142 8.44671 8.73854 11.8477 8.91624C11.7842 8.61167 11.7462 8.29444 11.7462 7.97717C11.7462 5.71827 13.5736 3.87819 15.8451 3.87819C17.0253 3.87819 18.0913 4.37311 18.8401 5.1726C19.7664 4.99495 20.6548 4.65229 21.4416 4.18276C21.137 5.13456 20.4898 5.93405 19.6396 6.44163C20.4644 6.35284 21.2639 6.12436 22 5.80713C21.4417 6.61928 20.7437 7.3426 19.9442 7.92639Z" fill="white"/>
</mask>
<g mask="url(#mask0)">
<rect width="24" height="24" fill="#A4A4A4"/>
</g>
</svg>
