<svg width="40" height="40" viewBox="0 0 40 40" fill="none" xmlns="http://www.w3.org/2000/svg">
<path d="M7.87695 0.00188066C7.13359 0.0670007 4.46683 2.39231 3.99805 3.80657C3.49805 5.31501 3.49805 11.3495 3.49805 11.3495C0.99805 15.8748 0.49806 22.4114 0.498047 23.9199C0.498047 29.5607 1.49795 33.9753 5.56836 36.9921C9.66732 40.0302 15.1343 40.0004 20 39.9999C24.8667 39.9995 30.3316 40.031 34.4316 36.9921C38.502 33.9753 39.502 29.5607 39.502 23.9199C39.502 22.4114 39.002 15.8748 36.502 11.3495C36.502 11.3495 36.502 5.31501 36.002 3.80657C35.502 2.29803 32.502 -0.247659 32.002 0.0194588C31.5045 0.285297 31.5021 8.25705 31.502 8.33196C27.9542 5.72743 23.9761 4.42919 20 4.42962C16.0175 4.43005 12.038 5.73334 8.49805 8.33196C8.49804 8.25706 8.49556 0.285272 7.99805 0.0194588C7.9668 0.00276878 7.92651 -0.00245934 7.87695 0.00188066ZM10.498 14.1054C11.3265 14.1054 11.998 14.8994 11.998 17.121C11.998 19.3426 11.3265 18.8456 10.498 18.8456C9.66964 18.8456 8.99805 19.3426 8.99805 17.121C8.99805 14.8994 9.66962 14.1054 10.498 14.1054ZM29.502 14.1054C30.3305 14.1054 31.002 14.8994 31.002 17.121C31.002 19.3426 30.3305 18.8456 29.502 18.8456C28.6736 18.8456 28.002 19.3426 28.002 17.121C28.002 14.8994 28.6736 14.1054 29.502 14.1054ZM20.002 22.8925C21.3529 24.1908 22.5712 25.7814 24.6055 28.4355C26.4176 26.9889 27.87 25.2482 28.9043 23.1796C30.2348 24.8369 31.0683 26.2791 33.002 27.3515C33.9012 26.269 34.5023 25.3171 35.7246 24.1913C34.8688 25.525 33.6003 32.5519 34.002 33.7187C32.9198 33.7833 30.976 33.2719 29.502 31.707C28.3023 33.6681 26.411 34.9435 24.3867 35.9062C23.5133 34.5638 21.6501 32.8314 20.002 31.707C18.4372 32.7455 16.3479 34.8274 15.6152 35.9062C13.3042 34.8657 11.7829 33.5907 10.498 31.707C9.39031 32.8605 7.79457 33.7187 5.99805 33.7187C6.48048 32.075 4.99781 25.3171 4.27539 24.1913C5.27532 25.0938 6.02823 26.1666 6.99805 27.3515C8.87533 26.288 9.76519 24.8369 11.0957 23.1796C12.13 25.2482 13.5844 26.9889 15.3965 28.4355C17.4952 25.7451 18.6258 24.1908 20.002 22.8925Z" fill="black"/>
</svg>
