<svg xmlns="http://www.w3.org/2000/svg" xml:space="preserve" width="1920" height="1080" viewBox="0 0 508 285.75"><path d="M-20.145-3.486h547.744v299.191H-20.145z" style="fill:#000;stroke-width:.264583"/><path d="M92.033 75.06c-.762 0-1.143.282-1.143.846 0 .593.38.89 1.143.89h2.286v20.362h-2.286c-.762 0-1.143.282-1.143.846 0 .593.38.89 1.143.89h12.954c1.919 0 3.556-.636 4.91-1.906 1.383-1.27 2.075-2.793 2.075-4.571 0-2.823-1.792-4.87-5.376-6.14 2.399-1.297 3.598-2.99 3.598-5.079 0-1.75-.691-3.203-2.074-4.36-1.383-1.186-3.105-1.778-5.165-1.778H92.033zm4.021 1.735h6.943c1.552 0 2.85.424 3.895 1.27 1.044.819 1.567 1.849 1.567 3.09 0 1.299-.58 2.371-1.736 3.218-1.157.847-2.639 1.27-4.445 1.27h-6.224v-8.848zm108.289 3.853c-1.61 0-2.992.31-4.149.931-1.157.62-2.3 1.665-3.429 3.133V81.24h-4.022c-.762 0-1.142.282-1.142.846 0 .593.38.889 1.142.889h2.286v22.056h-2.286c-.762 0-1.142.282-1.142.846 0 .593.38.89 1.142.89h8.17c.763 0 1.144-.297 1.144-.89 0-.564-.381-.846-1.143-.846h-4.149V94.406c1.891 2.71 4.417 4.064 7.578 4.064 2.596 0 4.784-.86 6.562-2.582 1.778-1.722 2.667-3.839 2.667-6.35 0-2.512-.889-4.615-2.667-6.308-1.75-1.721-3.938-2.582-6.562-2.582zm24.046 0c-2.71 0-4.996.875-6.859 2.624-1.862 1.722-2.794 3.867-2.794 6.435 0 2.738.989 5.066 2.964 6.985 2.004 1.92 4.43 2.879 7.28 2.879 1.92 0 3.882-.396 5.886-1.186 2.032-.79 3.047-1.552 3.047-2.285a.812.812 0 0 0-.254-.593.684.684 0 0 0-.55-.254c-.17 0-.395.099-.677.296-.847.678-1.962 1.228-3.345 1.651-1.383.424-2.737.635-4.063.635-2.286 0-4.205-.663-5.758-1.99-1.552-1.354-2.484-3.147-2.794-5.376h17.61c0-2.963-.902-5.334-2.708-7.112-1.806-1.806-4.135-2.71-6.985-2.71zm-59.225.593c-.762 0-1.143.282-1.143.846 0 .593.38.889 1.143.889h1.439v14.182h-1.396c-.79 0-1.186.282-1.186.846 0 .593.396.89 1.186.89h5.037c.762 0 1.143-.297 1.143-.89 0-.564-.381-.846-1.143-.846h-1.905V82.976h11.304v14.182h-1.906c-.762 0-1.143.282-1.143.846 0 .593.381.89 1.143.89h5.08c.762 0 1.143-.297 1.143-.89 0-.564-.381-.846-1.143-.846h-1.44V82.976h1.44c.762 0 1.143-.296 1.143-.889 0-.564-.381-.846-1.143-.846h-17.653zm78.74 0c-.762 0-1.143.282-1.143.846 0 .593.381.889 1.143.889h1.44V95.38c0 .875-.212 1.467-.636 1.778h-4.91v5.588c0 .762.296 1.143.888 1.143.565 0 .847-.381.847-1.143v-3.853h17.568v3.853c0 .762.283 1.143.848 1.143.592 0 .889-.381.889-1.143v-5.588h-4.277V82.976h1.44c.762 0 1.143-.296 1.143-.889 0-.564-.381-.846-1.143-.846h-14.097zm20.447 0c-.705 0-1.059.282-1.059.846 0 .593.34.889 1.017.889h1.312v14.182h-1.228c-.338 0-.607.084-.804.254-.198.169-.297.367-.297.592 0 .593.368.89 1.101.89h9.652c1.806 0 3.133-.438 3.98-1.313.846-.875 1.27-2.032 1.27-3.471 0-1.44-.452-2.667-1.355-3.683-.903-1.045-2.173-1.567-3.81-1.567h-6.773v-5.884h1.777c.678 0 1.017-.296 1.017-.889 0-.564-.354-.846-1.06-.846h-4.74zm17.272 0c-.762 0-1.143.282-1.143.846 0 .593.38.889 1.143.889h1.905v14.182h-1.905c-.762 0-1.143.282-1.143.846 0 .593.38.89 1.143.89h5.08c.762 0 1.143-.297 1.143-.89 0-.564-.381-.846-1.143-.846h-1.44V82.976h1.44c.762 0 1.143-.296 1.143-.889 0-.564-.381-.846-1.143-.846h-5.08zm13.081 0c-.762 0-1.143.282-1.143.846 0 .593.381.889 1.143.889h1.44V95.38c0 .875-.213 1.467-.636 1.778h-4.91v5.588c0 .762.296 1.143.888 1.143.565 0 .847-.381.847-1.143v-3.853H313.9v3.853c0 .762.283 1.143.848 1.143.592 0 .888-.381.888-1.143v-5.588h-4.275V82.976h1.439c.762 0 1.143-.296 1.143-.889 0-.564-.381-.846-1.143-.846h-14.097zm22.268 0c-.762 0-1.144.282-1.144.846 0 .593.382.889 1.144.889h.677l7.958 15.917-3.006 6.139h-5.376c-.762 0-1.143.282-1.143.846 0 .593.381.89 1.143.89h9.864c.762 0 1.143-.297 1.143-.89 0-.564-.381-.846-1.143-.846h-2.752l10.837-22.056h.593c.762 0 1.143-.296 1.143-.889 0-.564-.38-.846-1.143-.846h-4.657c-.762 0-1.143.282-1.143.846 0 .593.381.889 1.143.889h2.287l-6.817 14.012-6.942-14.012h2.201c.762 0 1.144-.296 1.144-.889 0-.564-.382-.846-1.144-.846h-4.867zm23.663 0c-.79 0-1.185.296-1.185.888 0 .565.395.847 1.185.847h1.312v14.182h-1.354c-.762 0-1.143.296-1.143.889 0 .564.381.846 1.143.846h21.633v3.853c0 .762.282 1.143.846 1.143.593 0 .889-.381.889-1.143v-5.588h-2.625V82.976h1.398c.762 0 1.142-.282 1.142-.847 0-.592-.38-.888-1.142-.888h-4.53c-.762 0-1.143.296-1.143.888 0 .565.381.847 1.143.847h1.397v14.182h-7.07V82.976h1.312c.96 0 1.44-.282 1.44-.847 0-.592-.48-.888-1.44-.888h-4.53c-.761 0-1.142.296-1.142.888 0 .565.38.847 1.143.847h1.481v14.182h-7.111V82.976h1.48c.763 0 1.144-.282 1.144-.847 0-.592-.381-.888-1.143-.888h-4.53zm27.728 0c-.762 0-1.142.282-1.142.846 0 .593.38.889 1.142.889h1.44v14.182h-1.397c-.79 0-1.185.282-1.185.846 0 .593.394.89 1.185.89h5.038c.762 0 1.143-.297 1.143-.89 0-.564-.38-.846-1.143-.846h-1.906v-1.82l11.261-7.96v9.78h-1.905c-.762 0-1.143.282-1.143.846 0 .593.381.89 1.143.89h5.08c.762 0 1.143-.297 1.143-.89 0-.564-.38-.846-1.143-.846h-1.44V82.976h1.44c.762 0 1.143-.296 1.143-.889 0-.564-.38-.846-1.143-.846h-5.08c-.762 0-1.143.282-1.143.846 0 .593.381.889 1.143.889h1.905v2.159l-11.26 7.959V82.976h1.905c.762 0 1.143-.296 1.143-.889 0-.564-.38-.846-1.143-.846h-5.08zm25.782 0c-.762 0-1.143.282-1.143.846 0 .593.38.889 1.143.889h.296l6.9 6.646-7.789 7.536h-.381c-.762 0-1.143.282-1.143.846 0 .593.38.89 1.143.89h5.63c.762 0 1.144-.297 1.144-.89 0-.564-.382-.846-1.144-.846h-2.878l6.646-6.308 6.561 6.308h-2.751c-.762 0-1.143.282-1.143.846 0 .593.38.89 1.143.89h5.588c.762 0 1.143-.297 1.143-.89 0-.564-.38-.846-1.143-.846h-.381l-7.79-7.536 6.901-6.646h.296c.762 0 1.143-.296 1.143-.889 0-.564-.38-.846-1.143-.846h-4.656c-.762 0-1.143.282-1.143.846 0 .593.381.889 1.143.889h2.032l-5.8 5.503-5.673-5.503h1.948c.762 0 1.143-.296 1.143-.889 0-.564-.381-.846-1.143-.846h-4.7zM204.3 82.384c2.145 0 3.936.691 5.376 2.074 1.439 1.383 2.159 3.104 2.159 5.164 0 1.976-.734 3.655-2.202 5.038-1.467 1.383-3.245 2.074-5.333 2.074-2.089 0-3.866-.691-5.334-2.074-1.467-1.411-2.202-3.119-2.202-5.122 0-1.976.735-3.655 2.202-5.038 1.468-1.41 3.245-2.116 5.334-2.116zm24.088 0c2.06 0 3.81.578 5.249 1.735 1.44 1.157 2.328 2.695 2.666 4.615h-15.832c.395-1.948 1.298-3.486 2.71-4.615 1.41-1.157 3.146-1.735 5.207-1.735zm22.69.592h7.747v14.182h-8.213l.128-.212c.084-.113.154-.31.21-.593.085-.31.128-.62.128-.93V82.975zm50.8 0h7.747v14.182h-8.212l.126-.212c.084-.113.156-.31.212-.593.085-.31.127-.62.127-.93V82.975zM96.054 87.379h6.308c1.524 0 2.822.169 3.895.508 1.1.31 1.919.734 2.455 1.27.536.508.917 1.03 1.143 1.566.254.536.381 1.1.381 1.694 0 1.326-.522 2.455-1.566 3.386-1.044.903-2.314 1.355-3.81 1.355h-8.806v-9.78zm175.303 3.217h6.01c2.795 0 4.192 1.171 4.192 3.514 0 1.044-.254 1.82-.762 2.328-.508.48-1.468.72-2.88.72h-6.56v-6.562zM95.92 134.855c-.076 0-.154.002-.232.009-.457.107-.644.117-1.06.355-.754.43-1.3 1.165-1.774 1.869-1.157 1.948-1.915 4.1-2.66 6.232-.16.494-.303.993-.457 1.49-.106.108-.196.25-.26.428a58.505 58.505 0 0 0-1.465 4.24 47.148 47.148 0 0 0-3.926-2.483c-1.842-1.036-3.868-1.654-5.89-2.228a125.266 125.266 0 0 0-6.058-1.499c-1.755-.363-3.526-.641-5.3-.89a22.284 22.284 0 0 0-3.033-.216 38.18 38.18 0 0 0-1.825.033c-1.722.042-3.414.332-5.094.688-1.714.35-3.403.81-5.065 1.354a25.082 25.082 0 0 0-4.327 1.889 47.425 47.425 0 0 0-3.492 2.151c-.951.646-1.904 1.288-2.853 1.939-.859.522-1.653 1.135-2.447 1.747-.43.33-.855.67-1.277 1.011.085.601-.322.92-.727.763-.024.013-.049.022-.073.03-.717-2.534-1.5-5.051-2.495-7.493a89.807 89.807 0 0 0-2.37-5.185.518.518 0 0 0-.356-.301.577.577 0 0 0-.119-.27c-.14-.185-.281-.37-.427-.552-.089-.13-.18-.26-.273-.386a.617.617 0 0 0-.098-.185c-.487-.635-.971-1.28-1.605-1.78-.177-.144-.363-.16-.515-.102a3.59 3.59 0 0 0-.948-.464 3.171 3.171 0 0 0-.674-.068c-.368.003-.73.077-1.09.231-.501.204-.964.472-1.423.756-.646.409-1.297.813-1.924 1.249-.822.568-1.618 1.187-2.251 1.968-.621.846-1.135 1.766-1.389 2.793-.247 1.34-.16 2.699-.055 4.05.183 2.286.463 4.566 1.036 6.791.728 2.705 1.58 5.379 2.63 7.978l.902 2.246c-.001.159.035.331.12.513.067.14.133.282.197.425a1 1 0 0 0-.125.277c-.086.264-.167.528-.245.794a29.15 29.15 0 0 1-.385 2.217 69.955 69.955 0 0 1-.769 3.169l-.124.475v.01c-.144.552-.29 1.104-.428 1.657-.557 2.453-.94 4.939-1.322 7.425-.18 1.75-.316 3.505-.428 5.261-.092 2.983-.228 5.968-.224 8.955.025 2.671.093 5.353.464 8.002.29 2.194.576 4.391.94 6.575.4 1.725.68 3.475 1.16 5.18.445 1.534.908 3.066 1.467 4.563.378 1.125.727 2.258 1.12 3.378.312.633.477 1.331.838 1.939.048.104.085.213.142.312.061.107.144.199.21.302.217.334.39.7.597 1.04.428.495.747 1.066 1.13 1.592.096.105.18.218.268.328.467.78.915 1.572 1.319 2.389.289.587.555 1.185.833 1.777 1.72 3.904 2.982 7.993 4.008 12.13.237.953.448 1.914.672 2.87 1.355 6.417 2.48 12.881 3.526 19.354.87 5.413 1.31 10.88 1.864 16.331.294 3.073.868 6.11 1.136 9.185.06.765.083 1.532.082 2.299.001 1.415 2.002 1.413 2.001-.003a31.47 31.47 0 0 0-.09-2.472c-.272-3.084-.837-6.132-1.138-9.213-.558-5.49-1.002-10.996-1.88-16.447-1.053-6.52-2.186-13.03-3.552-19.491-.229-.975-.444-1.952-.686-2.924-1.056-4.254-2.358-8.457-4.132-12.471-.291-.619-.57-1.244-.873-1.857a33.67 33.67 0 0 0-1.076-1.987l.013-.204-.12-.285c-.039-.094-.072-.19-.11-.284a40.428 40.428 0 0 1-1.83-4.07c-.175-.362-.36-.722-.437-1.123a73.933 73.933 0 0 1-1.144-3.289c-.429-1.466-1.017-2.885-1.382-4.37-.37-1.658-.821-3.301-1.077-4.982-.398-2.118-.685-4.257-.985-6.39-.218-2.547-.493-5.094-.427-7.655.066-2.937.06-5.884.26-8.816.114-2.19.299-4.376.52-6.557.356-.047.692-.288.833-.773.182-.607.571-1.1.966-1.583a20.329 20.329 0 0 1 2.254-2.264c.207-.17.418-.338.641-.488.682.408 1.744-.144 1.46-1.188a3.025 3.025 0 0 0-.105-.288 90.51 90.51 0 0 0-.683-1.633c-.436-1.007-.876-2.012-1.297-3.025.025-.008.05-.02.075-.027-.892-2.574-1.904-5.103-2.938-7.623a62.544 62.544 0 0 1-2.543-7.716c-.57-2.096-.794-4.257-.976-6.414-.08-1.16-.197-2.327.017-3.478a5.44 5.44 0 0 1 .992-1.884c.49-.606 1.13-1.047 1.766-1.485.605-.417 1.237-.794 1.858-1.187.343-.237.703-.44 1.085-.603a.466.466 0 0 1 .446-.039c.377.184.667.499.963.787.613.671 1.098 1.437 1.56 2.217-.075.34-.028.73.198 1.142 1.474 2.954 2.526 6.091 3.521 9.233-.014.34.097.662.29.924 1.138 3.796 2.165 7.626 3.183 11.456.353 1.358.725 2.711 1.035 4.08.058.251.053.28.07.457.018.129.049.254.084.379.008.029.02.057.029.085.71 1.964 3.452 1.005 2.85-.927v-.002c-.022-.209-.067-.63-.106-.656-.32-1.404-.699-2.794-1.062-4.187a530.095 530.095 0 0 0-2.115-7.783c.34.003.703-.114 1.056-.405a73.052 73.052 0 0 1 2.049-1.639c.75-.578 1.5-1.158 2.312-1.649.939-.643 1.882-1.28 2.824-1.918a44.296 44.296 0 0 1 3.272-2.018 21.818 21.818 0 0 1 3.812-1.665 42.599 42.599 0 0 1 4.756-1.27c1.514-.323 3.04-.59 4.592-.625 1.442-.06 2.887-.052 4.318.156 1.697.238 3.392.503 5.07.849 1.975.435 3.936.923 5.887 1.456 1.79.506 3.588 1.038 5.223 1.947a44.713 44.713 0 0 1 3.16 1.967c.686.3 1.366.868 1.897 1.318.123.054.245.089.365.11l-.012.192c.518.45 1.01.917 1.484 1.4.13-.578.253-1.158.39-1.733a139.332 139.332 0 0 1 2.538-8.812c.69-1.979 1.421-3.95 2.454-5.778.185-.268.797-1.176 1.237-1.037.007.132.237.266.32.344.156.143.37.36.515.504.528.591.981 1.243 1.416 1.904.382.583.54 1.253.64 1.932.056 1.134.01 2.272-.035 3.406-.026 1.697-.087 3.393-.14 5.09a63.214 63.214 0 0 1-.26 4.424c-.074 1.036-.226 2.061-.363 3.09-.106.699-.21 1.398-.301 2.1l-.128.827c.077.101.153.21.227.324l.002.003c.124.147.245.307.365.479.483.697.971 1.392 1.456 2.09.02-.069.04-.138.058-.208.346.388.68.786.993 1.2.267.338.521.686.786 1.026.071.088.14.18.207.272a40.444 40.444 0 0 1 1.496 2.77c.746 1.504 1.36 3.068 1.933 4.644a153.66 153.66 0 0 0 1.67 4.175c.404 1.068.828 2.13 1.205 3.21.344.907.59 1.847.798 2.795.175.89.317 1.788.51 2.674.172.761.325 1.525.45 2.295.177.782.239 1.58.367 2.37.129.797.156 1.606.257 2.406.07.772.127 1.542.155 2.316.013.906.043 1.812.053 2.718.031.895.08 1.79.108 2.685.08.796.144 1.595.276 2.384.08.686.25 1.359.34 2.04.1.736.174 1.47.3 2.203.214.772.312 1.568.492 2.347.165.761.39 1.509.576 2.264.222.71.436 1.42.64 2.136.294.734.457 1.51.655 2.273.186.769.381 1.538.583 2.304.214.717.39 1.444.561 2.172.224.703.415 1.417.625 2.124.182.67.395 1.33.573 2 .196.6.36 1.208.548 1.81.273.634.443 1.308.603 1.978.163.72.269 1.448.349 2.181.114.473.2.953.258 1.437-.011.044-.02.088-.035.132-.095.284-.252.541-.345.826-.384.823-.816 1.62-1.334 2.368-.513.861-1.035 1.721-1.517 2.6-.34.603-.687 1.183-1.177 1.681-.058.065-.115.135-.173.203a1.24 1.24 0 0 0-.301-.286 6.95 6.95 0 0 0-.277-.192c-.134-.123-.267-.247-.393-.377-.23-.06-.332-.345-.524-.463-.266-.28-.587-.504-.841-.797-.358-.362-.718-.722-1.066-1.093-.429-.355-.803-.762-1.208-1.14a.264.264 0 0 0-.072-.183 3.148 3.148 0 0 0-.835-.61 9.937 9.937 0 0 1-.649-.58c-.38-.345-.762-.686-1.105-1.066-.335-.282-.647-.6-1.009-.843-.328-.261-.722-.448-1.097-.632-.49-.15-1.483-.08-1.561.498a1.361 1.361 0 0 0-.254.316c-.119.248-.341.426-.461.674-.163.188-.305.392-.464.583-.229.349-.506.658-.718 1.018-.452.777-1.017 1.487-1.438 2.285-.514.82-1.03 1.638-1.536 2.464-.31.543-.69 1.038-1 1.581-.21.377-.47.71-.73 1.053l-.047.052c-.014-.002-.023-.003-.03 0-.08-.05-.114-.047-.187-.12-.101-.055-.154-.121-.251-.178-.191-.16-.348-.352-.556-.49-.285-.277-.613-.513-.93-.75-.406-.309-.768-.668-1.158-.995-.488-.422-.926-.897-1.414-1.319-.44-.463-.907-.905-1.355-1.362-.447-.4-.845-.849-1.314-1.224-.389-.305-.746-.653-1.17-.91a12.64 12.64 0 0 0-.81-.634c-.55-.262-.945-.417-1.527 0-.186.163-.386.307-.543.5-.239.274-.52.5-.766.77-.436.497-.921.951-1.339 1.466-.615.688-1.187 1.416-1.76 2.138a69.615 69.615 0 0 0-2.169 2.811c-.519.74-1.07 1.456-1.626 2.167-.024-.027-.048-.054-.071-.083-.234-.178-.387-.445-.571-.67-.298-.382-.65-.72-.94-1.11-.453-.544-.982-1.022-1.423-1.577-.563-.565-1.121-1.135-1.676-1.709-.63-.647-1.266-1.291-1.9-1.935-.495-.496-1.024-.956-1.526-1.446-.628-.494-1.26-1.005-2.08-1.114-.201.02-.407.01-.602.061-.639.16-1.092.754-1.498 1.22-.669.968-1.112 2.053-1.397 3.194-.022.12-.036.24-.056.36-.16.337-.31.68-.448 1.027a39.276 39.276 0 0 0-.992 2.938c-.247.941-.404 1.904-.543 2.867-.121.92-.217 1.843-.324 2.765-.11.828-.17 1.66-.21 2.494-.028.88-.068 1.761-.054 2.642.023.718.078 1.434.129 2.15.066.755.143 1.508.216 2.263.08.735.154 1.472.243 2.206.068.64.165 1.277.288 1.91.122.638.3 1.262.521 1.873.18.476.371.949.543 1.428.18.559.411 1.097.642 1.636.228.577.49 1.136.791 1.678.392.652.731 1.33 1.06 2.016l.11.203c.22.526.457 1.045.736 1.543.306.504.637.994.99 1.466.094.124.195.242.298.358-.007.067.006.125.009.188.079.04.161.093.247.159.351.272.74.53 1.089.825a1.01 1.01 0 0 0 .461-.23c.063-.127.12-.255.182-.382a1.292 1.292 0 0 1 .081-.61c.656-1.826.128-.315.725-2.126l.1-.307.122-.475c.38-1.558.748-3.12 1.189-4.663.37-1.4.936-2.732 1.59-4.02.28-.539.586-1.061.907-1.576.5.384.987.783 1.458 1.202.92.87 1.849 1.728 2.795 2.568.974.863 1.958 1.717 2.925 2.587.02.147.086.206.242.218l.517.472c.865.831 1.767 1.624 2.7 2.377-.004.045.007.08.05.095.043.018.089.03.133.044.543.416 1.074.842 1.585 1.295.126.312.375.516.658.607.087.087.17.178.253.268l.156.244a3.8 3.8 0 0 1 1.068.882c.046-.157.1-.316.167-.482.597-1.489 1.596-2.734 2.555-3.995l.542-.718c.092-.151.18-.305.272-.455 1.229-1.968 2.557-3.874 3.886-5.774a54.178 54.178 0 0 1 2.89-3.804c.237-.27.472-.543.721-.802.155.088.322.182.456.26.969.59 1.848 1.312 2.713 2.044a68.55 68.55 0 0 1 2.704 2.497c.745.742 1.49 1.486 2.203 2.26.39.436.753.895 1.094 1.37.094.05.191.122.289.22.52.52 1.018 1.074 1.474 1.66a.932.932 0 0 0 .21-.27c.185-.407.357-.82.533-1.232-.002.014-.007.029-.008.043 0 .02.029-.026.04-.042.074-.102.143-.206.215-.308l.314-.453c1.448-2.088-.769 1.105.767-1.107.997-1.462 1.934-2.962 2.94-4.419 1.21-1.725 2.61-3.302 4.044-4.84.46-.481.92-.96 1.376-1.444.007.703.031 1.405.085 2.107.081.84.204 1.675.335 2.507.094.136.168.317.208.544.083.473.161.947.25 1.42.196 1.042.296 1.558.567 2.539.128.466.277.928.423 1.39l.021-.046c.05.204.101.407.155.61l.097.328c.087.191.136.407.173.63.037.123.074.246.113.369.089.275.195.543.25.827.014.09.035.177.058.264-.02.074-.042.147-.064.22a.757.757 0 0 1-.082.392c.004.002 0 .002-.003.004a.575.575 0 0 1-.092.126c-.021.056-.041.112-.063.167 0 .173-.028.3-.109.311l-.021.004c-.135.315-.282.625-.43.935-.661 1.343-1.416 2.636-2.215 3.9-.814 1.25-1.6 2.514-2.31 3.828-.517.99-1.049 1.975-1.568 2.965-.363.96-.74 1.916-1.116 2.872-.222.75-.449 1.5-.677 2.248-.18.602-.344 1.208-.502 1.816.72-.346 1.221-.617 2.112-1.1l.134-.265c-.02-.15-.005-.333.063-.547.144-.454.266-.916.432-1.363.498-1.338 1.167-2.598 1.866-3.839.532-1.098 1.141-2.156 1.747-3.219.076-.123.15-.246.225-.37a64.695 64.695 0 0 1 2.014-3.396 93.565 93.565 0 0 1 2.033-3.35c.3-.467.521-.804.716-1.092.006-.03.012-.06.02-.09-.35-1.512-.65-3.038-1.022-4.544-.66-3.266-1.457-6.578-1.471-9.921a1.588 1.588 0 0 1-.084-.198c-.032-.092-.06-.184-.088-.276a9.252 9.252 0 0 1-.158-.556c-.09-.275-.19-.545-.301-.812h-.004a1.397 1.397 0 0 1-.372-.11l-.004-.001-.24-.106a1.084 1.084 0 0 0-.206-.043h-.012a.862.862 0 0 0-.113-.005c-.017 0-.033.002-.05.003l-.034.004a1.28 1.28 0 0 0-.292.07c-.248.083-.487.21-.785.266-.301.167-.596.346-.883.54a1.52 1.52 0 0 1-.332.172 1.187 1.187 0 0 1-.323.184c-1.444 1.676-2.886 3.355-4.388 4.98-.38.41-.774.47-1.023.33a.736.736 0 0 1-.466.112c-.143-.01-.268-.09-.391-.172a.762.762 0 0 1-.05-.007c-.019.06-.038.078-.064.012-.022.03-.059.028-.118-.024l.01-.037a1.036 1.036 0 0 1-.235-.13l.01.002a5.427 5.427 0 0 1-.05-.03c.011.01.024.019.036.027-.003 0-.006.002-.01-.001-.002.002-.025-.02-.044-.038l.017.01-.04-.03.014.013a1.336 1.336 0 0 1-.126-.088 2.155 2.155 0 0 1-.342-.05 3.325 3.325 0 0 1-.967-.421l-.245-.333c-.42-.557-.855-1.1-1.282-1.652-.216-.297-.427-.594-.576-.933a8.044 8.044 0 0 1-.408-1.05c-.134-.43-.253-.864-.389-1.294a7.982 7.982 0 0 1-.27-1.306 27.486 27.486 0 0 1-.148-1.638 17.448 17.448 0 0 1-.015-2.023c.036-.72.093-1.44.237-2.149.151-.728.323-1.455.635-2.134.303-.67.642-1.323 1.025-1.951a1.814 1.814 0 0 1 .313-.113c0 .017-.001.033-.003.05l.023-.055a12.686 12.686 0 0 1 2.347-.515l.073.052c.213.146.424.21.621.213.388.273.79.555 1.187.854.519-.31.977-.715 1.397-1.146.566-.653 1.117-1.337 1.53-2.1.44-.85.969-1.643 1.509-2.432.506-.857 1.047-1.697 1.494-2.586.189-.33.268-.702.403-1.052.072-.187.16-.351.208-.545-.218-1.628-.546-3.241-.914-4.844l-.067.189c-.028-.112-.053-.224-.084-.335-.148-.54-.325-1.072-.433-1.623-.184-.586-.385-1.167-.506-1.77-.201-.644-.402-1.289-.543-1.95-.163-.716-.423-1.405-.583-2.121a66.04 66.04 0 0 1-.581-2.227c-.224-.734-.39-1.483-.563-2.23-.188-.81-.44-1.603-.619-2.414-.224-.685-.457-1.37-.62-2.071-.21-.7-.419-1.401-.552-2.12-.14-.775-.327-1.54-.447-2.319a13.86 13.86 0 0 1-.271-2.097c-.102-.68-.174-1.363-.287-2.042-.08-.728-.215-1.452-.217-2.188a34.746 34.746 0 0 1-.101-2.615c-.039-.903-.029-1.808-.077-2.71-.01-.834-.032-1.668-.141-2.496-.055-.827-.152-1.652-.244-2.474-.072-.84-.202-1.676-.326-2.51a70.61 70.61 0 0 1-.41-2.352c-.163-.906-.342-1.81-.503-2.716a30.516 30.516 0 0 0-.856-3.154c-.416-1.092-.83-2.188-1.248-3.279-.529-1.38-1.154-2.723-1.625-4.126-.636-1.656-1.267-3.316-2.026-4.921-.798-1.546-1.645-3.073-2.621-4.514-.32-.481-.645-.96-.976-1.434l-.062.215c-.214-.29-.424-.583-.641-.87-.312-.442-.63-.889-1.007-1.276.084-.482.16-.965.231-1.45.164-1.067.277-2.14.388-3.214.14-1.52.233-3.042.274-4.568.063-1.7.123-3.4.149-5.102.023-1.277.132-2.56 0-3.834-.147-1.045-.451-2.04-1.037-2.93a17.755 17.755 0 0 0-1.744-2.281c-.778-.794-1.633-1.486-2.773-1.487l-.003-.013zm95.342.873c-2.822 0-5.15.903-6.985 2.709-1.834 1.806-2.752 4.106-2.752 6.9 0 2.71.89 4.94 2.667 6.69 1.807 1.75 4.093 2.624 6.858 2.624 1.327 0 2.625-.183 3.895-.55 1.27-.367 2.286-.805 3.048-1.313.79-.508 1.425-.988 1.905-1.44.48-.479.72-.846.72-1.1a.683.683 0 0 0-.254-.55.683.683 0 0 0-.55-.254c-.227 0-.48.141-.763.423-2.2 2.032-4.84 3.048-7.916 3.048-2.314 0-4.205-.705-5.673-2.116-1.467-1.44-2.201-3.274-2.201-5.504 0-2.314.72-4.19 2.159-5.63 1.467-1.468 3.373-2.202 5.715-2.202 1.778 0 3.316.396 4.614 1.186 1.327.762 2.032 1.708 2.117 2.836.085.678.38 1.016.889 1.016.564 0 .846-.38.846-1.143v-3.852c0-.79-.282-1.186-.846-1.186-.593 0-.889.396-.889 1.186v.55c-1.778-1.552-3.98-2.328-6.604-2.328zm24.427 0c-2.71 0-4.996.875-6.858 2.624-1.863 1.722-2.795 3.867-2.795 6.435 0 2.738.988 5.066 2.964 6.985 2.003 1.92 4.43 2.879 7.28 2.879 1.92 0 3.882-.395 5.886-1.185 2.032-.79 3.048-1.553 3.048-2.287a.813.813 0 0 0-.255-.592.68.68 0 0 0-.55-.254c-.169 0-.395.098-.677.296-.847.677-1.962 1.228-3.345 1.651-1.383.423-2.737.635-4.064.635-2.286 0-4.204-.663-5.757-1.99-1.552-1.354-2.484-3.146-2.794-5.376h17.61c0-2.963-.902-5.334-2.708-7.112-1.806-1.806-4.135-2.71-6.985-2.71zm26.754 0c-1.61 0-2.992.31-4.149.931s-2.3 1.665-3.428 3.133v-3.472h-4.023c-.762 0-1.142.283-1.142.847 0 .593.38.89 1.142.89h2.286v22.055h-2.286c-.762 0-1.142.282-1.142.847 0 .592.38.888 1.142.888h8.17c.763 0 1.144-.296 1.144-.888 0-.565-.381-.847-1.143-.847h-4.148v-10.626c1.89 2.71 4.416 4.064 7.577 4.064 2.596 0 4.784-.86 6.562-2.582 1.778-1.721 2.667-3.838 2.667-6.35 0-2.512-.889-4.614-2.667-6.308-1.75-1.721-3.938-2.582-6.562-2.582zm15.621.592c-.762 0-1.143.283-1.143.847 0 .593.381.89 1.143.89h1.439v14.18h-1.396c-.79 0-1.186.283-1.186.848 0 .592.396.889 1.186.889h5.037c.762 0 1.143-.297 1.143-.89 0-.564-.381-.846-1.143-.846h-1.905v-1.82l11.26-7.959v9.779h-1.905c-.762 0-1.143.282-1.143.847 0 .592.381.889 1.143.889h5.08c.763 0 1.143-.297 1.143-.89 0-.564-.38-.846-1.142-.846h-1.44v-14.182h1.44c.762 0 1.142-.296 1.142-.889 0-.564-.38-.847-1.142-.847h-5.08c-.763 0-1.144.283-1.144.847 0 .593.381.89 1.143.89h1.906v2.158l-11.261 7.959v-10.118h1.905c.762 0 1.143-.296 1.143-.889 0-.564-.381-.847-1.143-.847h-5.08zm32.173 0c-1.806 0-3.133.452-3.98 1.355-.846.875-1.27 2.018-1.27 3.429 0 1.44.452 2.681 1.355 3.725.932 1.016 2.202 1.524 3.81 1.524h3.98l-7.79 5.885h-1.947c-.734 0-1.1.282-1.1.847 0 .592.366.889 1.1.889h5.588c.734 0 1.1-.297 1.1-.89 0-.564-.366-.846-1.1-.846h-1.185l8.128-5.885v5.885h-1.524c-.678 0-1.016.296-1.016.89 0 .564.338.846 1.016.846h4.826c.678 0 1.016-.282 1.016-.847 0-.593-.338-.89-1.016-.89h-1.524v-14.18h1.44c.338 0 .606-.085.804-.255.197-.169.296-.367.296-.592 0-.593-.367-.89-1.1-.89h-9.907zm19.008 0c-.762 0-1.143.283-1.143.847 0 .593.38.89 1.143.89h.296l6.9 6.645-7.789 7.536h-.38c-.763 0-1.144.282-1.144.847 0 .592.381.889 1.143.889h5.63c.762 0 1.143-.297 1.143-.89 0-.564-.38-.846-1.143-.846h-2.879l6.647-6.308 6.562 6.308h-2.752c-.762 0-1.143.282-1.143.847 0 .592.381.889 1.143.889h5.588c.762 0 1.143-.297 1.143-.89 0-.564-.381-.846-1.143-.846h-.381l-7.79-7.536 6.902-6.646h.295c.762 0 1.143-.296 1.143-.889 0-.564-.38-.847-1.143-.847h-4.656c-.762 0-1.143.283-1.143.847 0 .593.381.89 1.143.89h2.032l-5.8 5.503-5.672-5.504h1.947c.762 0 1.143-.296 1.143-.889 0-.564-.381-.847-1.143-.847h-4.7zm-93.556 1.143c2.06 0 3.81.58 5.249 1.736 1.44 1.157 2.328 2.695 2.667 4.614h-15.833c.395-1.947 1.299-3.485 2.71-4.614 1.41-1.157 3.146-1.736 5.207-1.736zm26.712 0c2.145 0 3.936.692 5.376 2.075 1.439 1.383 2.159 3.104 2.159 5.164 0 1.976-.734 3.655-2.202 5.038-1.467 1.383-3.245 2.075-5.333 2.075-2.089 0-3.867-.692-5.334-2.075-1.468-1.41-2.201-3.118-2.201-5.122 0-1.976.733-3.655 2.2-5.038 1.468-1.411 3.246-2.117 5.335-2.117zm48.006.593h6.519v6.562h-6.011c-2.766 0-4.15-1.172-4.15-3.514 0-1.072.24-1.848.72-2.328.508-.48 1.482-.72 2.922-.72zm-253.63 16.251.003.01c.026.073.044.141.058.208l-.061-.218zm415.928 7.357h.001c-.942-.003-1.821.26-2.218 1.297-.167.82-.18 1.662-.35 2.483-.437 2.184-1.042 4.327-1.717 6.45-1.022 3.165-2.215 6.266-3.806 9.197-1.713 3.2-3.552 6.337-5.978 9.06-.11.119-.187.24-.238.363a217.504 217.504 0 0 1-2.739 2.995c-.987 1.06-.519.544-1.406 1.548a1.2 1.2 0 0 0-.249.422 94.159 94.159 0 0 0-6.91 5.821c-6.917 6.456-13.55 13.238-19.36 20.723-2.688 3.668-5.227 7.47-6.932 11.693a1.1 1.1 0 0 0-.402.601c-.216.703-.467 1.395-.7 2.092-.15.448-.039.816.193 1.06-.126.84.93 1.596 1.738.805 2.76-2.16 5.856-3.868 8.891-5.61a32.614 32.614 0 0 1 2.778-1.444 3.454 3.454 0 0 0-.146.38c-.035.18-.073.36-.116.54-.054.214-.091.43-.116.646-.241 1.294-.292 2.625-.402 3.933a87.602 87.602 0 0 1-.724 6.64c-.805 1.154-1.602 2.313-2.466 3.423a80.615 80.615 0 0 1-5.679 6.427c-1.944 1.912-3.961 3.742-6 5.552-.042-.988-.084-1.975-.137-2.962a6.166 6.166 0 0 0-.266-1.349c-.18-.6-.394-1.19-.552-1.796-.15-.533-.525-1.369-1.143-1.415a.77.77 0 0 0-.28.032c-.13.04-.258.082-.383.133-.276.125-.53.285-.754.492-.59.486-1.191.962-1.688 1.55-1.211 1.31-2.398 2.647-3.506 4.047-1.771 2.19-3.504 4.41-4.985 6.812-2.17 3.441-4.216 6.964-5.968 10.64-1.53 3.182-3.037 6.382-4.163 9.735-.47 1.334 1.418 1.999 1.888.664 1.103-3.282 2.582-6.415 4.08-9.531 1.718-3.607 3.726-7.064 5.856-10.44 1.44-2.336 3.127-4.492 4.849-6.621 1.08-1.366 2.238-2.67 3.42-3.947.307-.37.665-.683 1.032-.987.125.402.261.801.38 1.205.106.312.165.62.19.948.074 1.41.125 2.82.19 4.23.063 1.563.185 3.122.264 4.683.034.729.049 1.458.059 2.187-.1.553-.142 1.114-.186 1.673-.045.512-.08 1.024-.112 1.537-.023.386-.053.772-.075 1.158-.017.287-.03.574-.05.861-.008.2-.04.398-.072.595-.024.147-.042.294-.064.441-.014.111-.03.222-.047.333a1.301 1.301 0 0 1-.03.127c.06.052.11.1.158.145l-.052.17c-.028.111-.058.223-.09.334-.015.062-.033.123-.048.185l-.018.087a.642.642 0 0 0 .016.344c.1.292.379.394.661.369.278-.054.47-.254.663-.443.17-.17.354-.323.537-.479.433-.36.85-.736 1.251-1.13.387-.375.762-.761 1.129-1.155a.586.586 0 0 0 .235-.14c.9-.768 1.753-1.59 2.604-2.412a47.81 47.81 0 0 1 1.14-.833l.208-.147a41.816 41.816 0 0 1 1.168-.787c.328-.21.663-.41 1.02-.563.157-.067.348-.182.537-.274.167-.082.332-.145.47-.142a.293.293 0 0 1 .246.125c.217.302.378.633.506.98-.107 2.085-.18 4.172-.252 6.258l-.049.591c-.303 3.357-.51 6.72-.56 10.09-.006.409.157.702.392.878-.062.924-.12 1.85-.171 2.775.007 1.1-.034 2.211-.05 3.323a1.36 1.36 0 0 0 .06-.173c.047-.18.086-.362.116-.546.256-1.52.44-3.051.59-4.586.304-.049.595-.246.769-.64a.133.133 0 0 0-.007.02c.073-.13.148-.26.228-.384.293-.452.6-.894.879-1.355.646-.975 1.326-1.93 1.88-2.962l.318-.564a237.138 237.138 0 0 0 4.562-5.939c.086.378.176.756.27 1.132.466 1.77 1.089 3.493 1.739 5.203.286.741.586 1.477.884 2.214.151.374.518.413.756.255.105.238.213.475.315.715.036.094.078.186.126.275.014.079.037.14.084.145.045.07.092.138.143.203.083.106.182.194.29.274l1.337-1.487c.007-.008.021-.014.021-.025-.003-.087-.017-.173-.026-.26l-.001-.016a1.37 1.37 0 0 0 .065-.316c.022-.175.05-.35.071-.525.027-.107.059-.216.082-.325.07-.201.142-.403.185-.613.055-.241.127-.478.195-.716.104-.353.224-.7.326-1.054.176-.65.338-1.304.537-1.947.299-.984.63-1.959.992-2.921l.382-.993c.441-.765.845-1.552 1.258-2.333.62-1.14 1.172-2.316 1.721-3.492.403-.893.935-1.716 1.484-2.524.463-.676.928-1.35 1.377-2.034.326-.464.652-.927.968-1.397.247-.359.51-.706.769-1.057.143-.196.307-.376.45-.572.094-.136.173-.282.233-.435.796-2.55-2.344-.838-2.72-.68-.122.043-.245.085-.368.126-.646-.002-1.418.01-1.51.017-2.172.042-4.344.09-6.512.227.24-.36.486-.715.753-1.055 1.15-1.546 2.366-3.05 3.842-4.303 1.765-1.501 3.653-2.826 5.615-4.06.13-.09 1.16-.772 1.188-.85.47-1.263.55-1.902-.605-2.057a24.214 24.214 0 0 0-2.988-.13c-2.149.003-4.302.017-6.447.146l-.11-.005a1.19 1.19 0 0 0-.514.045c-.365.026-.73.055-1.096.09-1.544.198-3.087.434-4.6.8.22-2.378.32-4.766.426-7.162.249-3 .533-6.004 1.19-8.946a1.166 1.166 0 0 0-.01-.557c.037-.164.073-.33.112-.494.085-.311.163-.625.257-.934.193-.637 1.468-3.24-.335-3.295-.059-.003-.12-.001-.185.002-.675.132-1.331.35-1.988.55-2.548.852-5.023 1.905-7.347 3.264-2.42 1.389-4.881 2.756-7.182 4.346 1.637-4.397 4.238-8.305 7.003-12.068 5.74-7.382 12.286-14.075 19.113-20.444a92.885 92.885 0 0 1 7.208-6.032.784.784 0 0 1 .237-.272c.447-.34.899-.675 1.356-1.001l.05-.036c.456-.324.918-.64 1.387-.945.45-.344.903-.68 1.375-.992.315-.208.65-.38.976-.571a.96.96 0 0 1 .144-.07c2.142-1.4 4.336-2.72 6.578-3.963a46.636 46.636 0 0 1 6.178-2.765c.075-.093.206-.17.398-.204.134-.024.267-.052.4-.082l.008-.003c.117-.026.234-.054.351-.082a.95.95 0 0 0 .063-.053l.105-.035c.22-.05.441-.097.663-.143.956-.175 1.92-.289 2.885-.4l.659-.023a35.482 35.482 0 0 1 2.544.029c.773.032 1.545.091 2.316.167.584.059 1.165.14 1.738.27.37.084.722.225 1.076.357.17.064.338.128.506.194.049.031.102.061.16.089.667.302 1.32.632 1.972.967.035.018.07.034.104.048.451.297.889.614 1.32.94l.474.369c.064.05.13.092.195.127l.621.51c.191.155.38.315.567.476.079.14.198.273.365.389 1.083.88 1.978 1.966 2.88 3.023.375.441.738.891 1.09 1.349a46.343 46.343 0 0 1 1.57 2.684c-1.333 2.041-2.549 4.162-3.81 6.246a256.395 256.395 0 0 1-5.767 9.06c-.17.254-.347.503-.526.75.309.576.655 1.139 1.067 1.56a132.338 132.338 0 0 0 2.415-3.157c.752-1.151 1.495-2.308 2.229-3.47a98.45 98.45 0 0 1-.649 1.29 104.128 104.128 0 0 0 2.915-4.336l.148-.244c.503-.93.947-1.657 1.485-2.458l.155-.263a88.66 88.66 0 0 0 1.495-2.719c.352-.66.705-1.322 1.063-1.98l.048-.087a79.324 79.324 0 0 1 .679-1.22 44.634 44.634 0 0 1 .864-1.449l.134-.214c.085-.135.17-.268.258-.401a501.873 501.873 0 0 1 3.743-7.4c.668-1.157 1.3-2.34 2.07-3.435.172-.147.285-.417.487-.534.006-.003-.107.157-.098.163.073.047.17.038.256.057 1.22.317 2.205 1.057 3.137 1.87.798.753 1.46 1.633 2.072 2.538.324.558.19 1.163.07 1.765-.427 1.783-1.052 3.51-1.645 5.242-.746 1.806-1.285 3.678-1.825 5.552-.596 2.005-1.42 3.925-2.328 5.806-.523 1.073-1.1 2.118-1.674 3.164a46.378 46.378 0 0 1-1.735 3.405v-.002a76.4 76.4 0 0 1-1.72 2.914l.01.159a47.7 47.7 0 0 1-.886 1.484 116.733 116.733 0 0 1-2.264 4.41c-.244.41-.533.785-.83 1.154.027.147.089.285.175.407-.422.768.371 1.853 1.398 1.33a4.653 4.653 0 0 1 1.64-.518l.025.001c.21.205.453.293.687.294a59.051 59.051 0 0 1-.447 3.217c-.428 2.51-1.097 4.958-1.913 7.365-.01.088-.028.18-.053.278-.1.384-.21.764-.327 1.142-.04.127-.077.255-.119.381-.033.104-.07.207-.104.31-.076.227-.155.452-.237.676-.05.138-.1.275-.152.411-.045.117-.092.232-.139.348-.044.112-.088.224-.134.336-.057.135-.115.27-.174.404l-.12.28-.167.36c-.052.113-.103.226-.157.337l-.15.306-.181.362c-.094.183-.189.366-.286.547-.189.483-.385.964-.592 1.44-1.062 2.437-2.328 4.782-3.616 7.108-.806 2.942-1.463 5.926-2.056 8.918a281.924 281.924 0 0 0-2.575 16.697c-.506 4.497-.923 9.007-1.017 13.533.01 1.96.073 3.937.442 5.867.271 1.388 2.235 1.004 1.963-.385-.36-1.785-.376-3.627-.404-5.441.09-4.458.506-8.9 1.002-13.329a279.955 279.955 0 0 1 2.552-16.553c.868-4.388 1.875-8.757 3.306-13-.25.978-.508 1.981-.783 3.026a106.101 106.101 0 0 0 2.159-4.201c1.345-2.835 2.615-5.704 3.714-8.645.986-2.788 1.794-5.628 2.292-8.548.476-2.85.809-5.723.704-8.62a80.242 80.242 0 0 0-.14-3.036l.11-.203c.732-1.312 1.414-2.65 2.1-3.987.872-1.69 1.847-3.323 2.676-5.035.955-1.982 1.822-4.007 2.448-6.121.531-1.843 1.06-3.683 1.796-5.458.624-1.825 1.283-3.645 1.719-5.527.198-1.138.274-2.237-.381-3.251-.712-1.048-1.485-2.062-2.417-2.926-1.23-1.06-2.555-1.994-4.174-2.34a5.409 5.409 0 0 0-.622-.03c-.86.021-1.347.362-1.938 1.18-.815 1.17-1.504 2.424-2.208 3.664a483.03 483.03 0 0 0-4.39 8.708c-.066.136-.128.273-.193.41-.067.091-.135.182-.202.275a38.92 38.92 0 0 0-2.52-3.317c-.987-1.154-1.968-2.339-3.16-3.288a9.293 9.293 0 0 0-.242-.233 12.627 12.627 0 0 0-.435-.391l-.013-.01-.034-.03a1.185 1.185 0 0 1-.03-.025c-.007-.007-.016-.014-.025-.02l-.035-.03-.03-.024a9.904 9.904 0 0 0-.07-.058l-.114-.091-.02-.017-.015-.01-.011-.01-.02-.015a6.533 6.533 0 0 0-.028-.021l-.092-.071-.009-.006-.016-.012-.034-.025a8.865 8.865 0 0 0-.111-.081l-.638-.518-.276-.223-.068-.055-.165-.134-.03-.023c-.06-.05-.123-.098-.184-.148l-.607-.488a.02.02 0 0 0-.004 0c-.129-.104-.258-.208-.387-.31-.279-.145-.558-.29-.84-.427-.362-.163-.733-.304-1.1-.458a26.603 26.603 0 0 0-1.145-.456c-.44-.164-.878-.333-1.337-.435a16.487 16.487 0 0 0-1.982-.308 45.12 45.12 0 0 0-2.112-.159l-.386.006c-.622.008-1.243.017-1.865.03-.04 0-.08 0-.12.002-.44.009-.881.02-1.321.034l-.03.001h-.002l-.024.001c-.326.042-.652.086-.978.125a.948.948 0 0 1-.128.007h-.008a.616.616 0 0 1-.293-.073c-.107.006-.214.01-.321.017a.984.984 0 0 1-.122-.001h-.016a.606.606 0 0 1-.292-.094c-.097.027-.194.059-.291.087.156-.418.238-.853.341-1.287.201-.76.387-1.525.634-2.272.424-1.355.859-2.708 1.228-4.08.44-1.58.875-3.165 1.162-4.781.214-1.5.286-3.014-.092-4.497-.33-1.178-.77-2.316-1.758-3.103-1.142-.721-2.453-1.13-3.751-1.474a8.873 8.873 0 0 0-1.285-.12zm-.26 1.712.006.084c-.01.027-.026.054-.038.08.01-.055.02-.11.032-.164zm-.049.25c.021.073.206.002.3.005.41.013.546.055.978.129.99.335 2.102.555 2.968 1.17.52.538.739 1.26.929 1.964.297 1.215.223 2.452.04 3.676-.278 1.531-.69 3.035-1.108 4.532-.364 1.352-.793 2.685-1.21 4.02-.257.776-.45 1.569-.66 2.357-.065.272-.209.902-.244 1.01-.222.401-.382.833-.538 1.264l-.078.222c-.226.065-.45.136-.673.214a1.164 1.164 0 0 0-.483.29 47.576 47.576 0 0 0-5.816 2.652 109.373 109.373 0 0 0-5.406 3.206 1.056 1.056 0 0 0-.086-.092c.52-.597 1.037-1.199 1.547-1.806.279-.3.355-.626.298-.915 1.173-1.765 2.22-3.616 3.224-5.49 1.648-3.035 2.887-6.247 3.947-9.526.7-2.194 1.32-4.413 1.775-6.671.183-.723.168-1.48.296-2.211zm-411.711 5.29.022.067a1.2 1.2 0 0 0 .004.019c-.009-.029-.016-.056-.026-.085zm62.223 21.697a3.288 3.288 0 0 0-1.591.549c-.402.247-.818.475-1.202.75-.485.361-.926.766-1.255 1.28a4.866 4.866 0 0 0-.698 2.109 24.549 24.549 0 0 0-.12 3.616c.058 1.721.103 3.445.102 5.167.055 2.097.17 4.19.324 6.281.117 1.49.245 2.984.563 4.447.017.07.038.138.062.201-.005.104-.002.213.014.33.01.054.017.109.028.163.088.37.23.715.468 1.015.172.206.349.41.54.6.144.125.283.245.448.344.02.012-.037-.027-.045-.047v-.001c.004.002.021.019.027.026.22.227.443.456.722.61.282.177.544.388.87.481.359.115.727.18 1.105.165a36 36 0 0 1 .735.001 4.8 4.8 0 0 0 .96-.084c.439-.08.85-.23 1.2-.513.29-.224.554-.474.788-.756.206-.225.444-.42.61-.68.216-.342.42-.694.568-1.07.134-.353.259-.71.348-1.076.08-.343.152-.69.169-1.044.019-.389.024-.779.02-1.169 0-.443-.009-.887-.018-1.33-.015-.501-.039-1.002-.052-1.502a59.213 59.213 0 0 0-.094-1.747c-.042-.624-.08-1.249-.126-1.873-.038-.55-.084-1.1-.125-1.65-.043-.556-.086-1.111-.133-1.667-.056-.625-.13-1.249-.195-1.872-.068-.682-.125-1.364-.217-2.042a36.848 36.848 0 0 0-.328-1.754c-.122-.609-.24-1.22-.416-1.816-.185-.603-.388-1.2-.665-1.768-.228-.472-.475-.937-.82-1.336a5.217 5.217 0 0 0-1.083-.923c-.465-.237-.955-.432-1.488-.414zm-36.512 1.315a4.094 4.094 0 0 0-.437.018c-.42.032-.834.097-1.243.197-.536.111-1.08.219-1.578.453a9.616 9.616 0 0 0-1.422.895c-.557.456-.964 1.007-1.2 1.694-.34.983-.473 2.011-.516 3.05-.076 1.478-.171 2.957-.195 4.438-.022 1.966-.066 3.932-.038 5.898.054 1.865.193 3.725.32 5.585.074 1.235.118 2.479.355 3.695.11.46.386.732.705.845a.071.071 0 0 0 .009.02c.064.132.127.263.212.383.115.165.231.33.353.49.11.116.224.224.334.34.227.242.487.44.791.574.192.095.39.177.583.268.247.13.492.266.752.371.246.095.494.189.749.26.258.066.519.122.785.143.25.015.5.027.75.034.223.002.447-.004.671 0 .287.006.574.006.858-.05.356-.07.707-.172 1.017-.367a5.59 5.59 0 0 0 .737-.495c.209-.173.434-.324.642-.499.253-.241.515-.486.679-.8.092-.184.178-.371.273-.554.109-.22.214-.444.304-.673.084-.2.162-.404.25-.602.094-.262.169-.528.225-.8.055-.29.102-.582.101-.877.007-.36 0-.723-.038-1.08-.032-.445-.074-.889-.087-1.334-.018-.567.006-1.133.01-1.7 0-.678-.008-1.355-.044-2.032a81.738 81.738 0 0 0-.134-2.36 144.1 144.1 0 0 0-.176-2.607c-.062-.736-.12-1.475-.201-2.208-.075-.67-.157-1.34-.26-2.006-.09-.7-.174-1.4-.297-2.094a21.713 21.713 0 0 0-.5-1.98c-.17-.532-.354-1.06-.588-1.567-.183-.387-.403-.752-.6-1.131-.267-.485-.572-.954-1.055-1.251-.353-.224-.721-.425-1.134-.515a4.48 4.48 0 0 0-.722-.068zm36.634 1.09c.005 0 .004.003-.007.013.025.05.159.084.243.137.115.142.282.228.393.376.197.24.33.52.463.797.222.456.383.936.53 1.42.151.521.25 1.057.358 1.59.111.546.223 1.093.308 1.645.083.636.138 1.274.201 1.912.064.616.138 1.23.192 1.847.047.547.09 1.094.133 1.642.04.544.084 1.088.123 1.632.046.622.082 1.246.125 1.868.037.555.07 1.111.09 1.667.012.494.038.989.052 1.483.012.423.015.846.015 1.27.008.348-.001.695-.018 1.042a3.571 3.571 0 0 1-.106.607c-.067.26-.155.516-.252.767-.094.22-.216.427-.346.627-.105.07-.25.237-.357.354a2.873 2.873 0 0 1-.475.47c-.117.099-.083.046-.134.05-.18.04-.362.05-.546.05-.257-.003-.514-.005-.77-.003-.099-.01-.215.017-.303-.036-.11-.052-.202-.133-.334-.22-.163-.09-.159-.119-.297-.261-.125-.17-.426-.309-.529-.418-.092-.116-.206-.219-.294-.337l.004-.005s-.028-.086.008-.003v-.015a1.655 1.655 0 0 0-.073-.3 1.419 1.419 0 0 0-.042-.43h.001c-.284-1.342-.397-2.711-.504-4.077-.15-2.05-.264-4.102-.319-6.156 0-1.729-.044-3.456-.1-5.183-.038-1.09-.02-2.18.104-3.264.047-.384.11-.773.34-1.093.17-.26.405-.443.65-.624.332-.227.685-.423 1.028-.634-.034-.002.398-.212.445-.208zm-36.614 1.1c.098 0 .197.007.294.03.125.057.246.134.363.21.15.103.227.294.311.452.172.345.38.669.543 1.018.19.42.34.857.48 1.296.173.577.323 1.16.441 1.75.11.644.187 1.294.271 1.942.1.654.183 1.31.256 1.967.08.715.134 1.432.194 2.148.068.852.121 1.705.174 2.558.057.774.096 1.549.13 2.324.034.643.045 1.285.044 1.93-.01.588-.024 1.177-.01 1.766.014.477.058.953.092 1.427.033.294.04.59.033.884 0 .17-.029.335-.062.5-.035.163-.079.323-.136.48-.079.16-.14.332-.21.498a6.518 6.518 0 0 1-.245.543c-.094.179-.176.362-.267.543.078-.145-.183.151-.225.19-.189.12-.363.262-.536.404-.141.114-.3.207-.457.3a.723.723 0 0 1-.307.1c-.135.021-.272.012-.408.01-.23-.004-.458.004-.687 0-.211-.007-.423-.017-.634-.03a2.74 2.74 0 0 1-.377-.077 8.014 8.014 0 0 1-.512-.183c-.178-.081-.35-.176-.523-.267-.202-.107-.419-.186-.623-.29-.018.005-.263-.143-.147-.086-.009-.04-.453-.423-.302-.302-.056-.105-.136-.197-.201-.296a.181.181 0 0 1-.026-.055c-.146-.318-.362-.517-.6-.62-.169-1.043-.21-2.106-.273-3.16-.123-1.837-.265-3.673-.318-5.515-.025-1.937.018-3.875.039-5.812.024-1.45.116-2.902.19-4.35.05-.822.11-1.652.396-2.43.1-.307.253-.527.502-.715a7.358 7.358 0 0 1 1.051-.656c.33-.123.68-.187 1.025-.258.317-.077.635-.135.96-.158.099-.004.197-.009.297-.01zm367.61 11.778c-.338.002-.667.02-.971.045-.795.104-1.58.258-2.33.542-.302.121-.495.312-.597.529-1.859.532-3.614 1.428-5.262 2.44-1.056.898-2.785 2.142-2.595 3.772.04.337.223.64.334.961.258.247.472.55.774.74 2.238 1.408 5.324.049 7.477-.79 1.997-1.052 4.968-2.306 6.263-4.278.185-.282.282-.613.424-.92-.004-.365.076-.742-.014-1.097-.413-1.633-2.038-1.952-3.503-1.944zm.307 1.957c.477-.001.948.072 1.354.337-.463 1.777-4.098 3.282-5.562 4.082-1.796.711-3.765 1.586-5.723 1.032-.92.082 1.413-2.217 1.515-2.148 2.086-1.296 4.377-2.389 6.851-2.626.546.008.885-.285 1.015-.65.182-.015.366-.027.55-.027zm-92.255 5.069c-.162.003-.329.027-.495.072-.18.05-.35.131-.525.197-1.448.816-2.71 1.996-3.699 3.332-.26.353-.486.731-.728 1.097-1.118 1.919-1.868 4.04-2.126 6.25-.05.43-.06.862-.09 1.292-.106 2.117.43 4.12 1.23 6.055a15.231 15.231 0 0 0 1.828 3.155c-.286.027-.29.028-1.234.112-2.211.218-4.43.153-6.637-.072-1.194-.142-2.373-.382-3.57-.49-.815-.06-1.558.412-1.772 1.223-.052.198-.061.406-.092.61a6.55 6.55 0 0 0 1.055 3.364c.164.251.358.482.537.723 1.442 1.693 3.34 2.87 5.281 3.905 1.735.896 3.608 1.447 5.502 1.881.662.144 1.331.242 2.001.336l-.047.049c-1.346 1.374-2.596 2.837-3.838 4.304-1.331 1.663-2.882 3.127-4.488 4.519-.494.437-1.033.82-1.541 1.24-.062.057-.112.11-.158.162l-.218.154a4.228 4.228 0 0 0-.398.316c-.074.07-.145.142-.212.22a.755.755 0 0 0-.144.246c-.078.21-.044.31.035.515.12.193.31.279.52.338.194.049.393.044.59.04.232-.008.462-.021.694-.034.183-.008.367-.016.55-.03.553.015 1.309.001 1.38 0 2.413.008 4.789-.382 7.119-.976 1.989-.525 3.829-1.433 5.57-2.51.805-.51 1.532-1.129 2.243-1.761.147-.117.277-.265.431-.377.09.05.176.113.261.166.4.288.746.646 1.064 1.02.783 1.067 1.397 2.245 2.005 3.416.946 1.839 1.585 3.805 2.114 5.797.529 2.3.646 4.661.686 7.012.01 1.999-.084 3.996-.207 5.99a62.246 62.246 0 0 1-.374 4.178c-.128.892-.24 1.787-.385 2.677-.157.87-.424 1.716-.697 2.556-.157.44-.072.279-.204.507-.633 1.265 1.156 2.16 1.79.895.225-.474.114-.214.318-.786.303-.935.598-1.878.768-2.85.149-.914.266-1.834.395-2.752.178-1.43.305-2.864.386-4.302.126-2.047.221-4.096.21-6.147-.044-2.513-.176-5.036-.753-7.492-.569-2.133-1.256-4.237-2.271-6.205-.68-1.308-1.368-2.624-2.265-3.8-.453-.52-.937-1.021-1.514-1.407-.332-.21-.67-.42-1.063-.492-.25-.047-.515-.072-.757.024a2.905 2.905 0 0 0-.423.205 5.27 5.27 0 0 0-.847.673c-.623.556-1.259 1.102-1.963 1.554-1.568.973-3.223 1.796-5.015 2.272-1.967.507-3.973.848-6.005.904 1.537-1.355 3.014-2.78 4.3-4.382 1.213-1.434 2.434-2.864 3.75-4.207.603-.625 2.693-2.258.815-3.09a9.128 9.128 0 0 0-.963-.193c-.934-.14-1.874-.245-2.8-.442-1.723-.393-3.43-.887-5.01-1.699-1.687-.893-3.345-1.9-4.623-3.345-.617-.796-1.1-1.664-1.195-2.688 1.084.117 2.154.338 3.239.457 2.333.235 4.68.305 7.019.075l1.824-.167c.244.026.49.044.735.053.22.005.441.004.662.009.111.002.222.012.332.024.061.004.072.008.105.016.045.011.091.02.137.026.077-.008.162.01.23-.025.287-.147.348-.336.37-.612.006-.26-.08-.496-.205-.719a2.21 2.21 0 0 0-.454-.517 4.131 4.131 0 0 1-.154-.144c-.13-.177-.261-.353-.394-.528-.29-.383-.57-.773-.849-1.164a13.11 13.11 0 0 1-1.264-2.28c-.688-1.649-1.167-3.348-1.082-5.156.023-.367.027-.735.068-1.1.216-1.933.857-3.791 1.823-5.475.2-.307.382-.625.598-.92a11.127 11.127 0 0 1 2.55-2.51c.095 1.02.253 2.034.425 3.043.632 3.15 1.556 6.246 3.135 9.063 1.04 1.713 2.154 3.562 4.164 4.197.088.066.187.119.292.154.137.096.284.179.432.257.163.087.342.135.52.177.174.042.347.037.521.005.27-.073.431-.275.562-.506.146-.253.185-.54.21-.826.018-.306.011-.612 0-.917.18-1.207.49-2.39.928-3.532 1.042-2.629 2.296-5.204 4.162-7.357.58-.627 1.156-1.234 1.85-1.652-.16.545-.3 1.096-.44 1.645-.886 3.931-1.474 7.966-.725 11.978.169.66.297 1.33.507 1.977a14.008 14.008 0 0 0 2.506 4.58c-.03.04-.057.082-.08.126.038.055.074.115.11.18.272.487.556.977.813 1.48.492.574.925 1.194 1.085 1.926.008.038.014.076.018.115.28.745.373 1.542.382 2.338-.016.867-.237 1.704-.462 2.535-.198.724-.45 1.43-.668 2.147-.135.423-.255.849-.37 1.277a5.312 5.312 0 0 0-.17 1.266c0 .89.15 1.77.282 2.648.333 2.088.43 4.205.502 6.315.057 2.601.042 5.204-.024 7.804-.056 1.84-.172 3.677-.277 5.514-.086 1.721-.198 3.44-.397 5.153-.21 1.59-.583 3.154-.959 4.712a34.09 34.09 0 0 1-.745 2.664 3.412 3.412 0 0 1-.075.168c-.746 1.202.955 2.257 1.7 1.055a3.23 3.23 0 0 0 .274-.594c.308-.929.56-1.874.791-2.824.395-1.637.785-3.28 1.002-4.953.202-1.75.32-3.508.407-5.268.106-1.859.223-3.716.28-5.577.066-2.64.081-5.282.023-7.922-.075-2.188-.177-4.383-.522-6.548-.116-.763-.25-1.529-.26-2.302.003-.268.03-.532.101-.791.11-.408.224-.815.353-1.217.223-.736.484-1.46.684-2.204.275-1.013.526-2.037.531-3.094-.02-.895-.12-1.785-.381-2.633a4.441 4.441 0 0 0-.152-.826 4.467 4.467 0 0 0-.354-.83c-.126-.238-.26-.47-.39-.707l-.479-.886c-.257-.49-.522-.978-.851-1.424-.26-.349-.518-.702-.818-1.018a.675.675 0 0 0-.092-.071 12.306 12.306 0 0 1-1.46-3.06c-.179-.563-.283-1.147-.425-1.72-.655-3.704-.083-7.424.738-11.048.2-.739.373-1.496.627-2.221a7.21 7.21 0 0 1 .702-.773c.19-.21.357-.438.468-.7.113-.296.13-.56-.072-.825a1.255 1.255 0 0 0-.404-.3 1.29 1.29 0 0 0-.435-.113c-.145-.008-.289 0-.432.025-.125.018-.25.042-.373.07-.139.028-.278.057-.414.094-.165.047-.33.096-.496.132a.538.538 0 0 0-.334.21c-.998.3-1.906.852-2.675 1.566-.348.322-.654.686-.981 1.029-2.047 2.333-3.425 5.128-4.565 7.99a18.716 18.716 0 0 0-.991 3.638 1.178 1.178 0 0 0-.318.271 2.022 2.022 0 0 1-.43-.21c-1.044-.706-1.69-1.959-2.317-3.004-1.455-2.62-2.305-5.496-2.886-8.42-.209-1.251-.406-2.51-.463-3.78.01-.855-.595-1.25-1.297-1.238zm115.057 5.135a9.77 9.77 0 0 0-2.353.324c-1.016.287-1.98.702-2.904 1.215-1.202.663-2.39 1.377-3.41 2.304-.529.5-1.029 1.025-1.492 1.584-1.644 1.54-2.678 3.665-1.71 5.944.204.482.546.892.819 1.338 2.176 2.138 5.16 3.514 8.258 2.846.698-.151 1.353-.461 2.03-.691 2.875-1.508 5.809-3.714 6.737-7.004.146-.518.163-1.065.244-1.598-.162-2.965-1.697-4.585-4.053-5.55-.122-.195-.325-.36-.623-.452a5.879 5.879 0 0 0-1.543-.26zm-364.88.723a.5.5 0 0 0-.452.7c.078.228.137.463.198.698.033.167.09.328.146.49.056.176.132.344.22.508.07.126.157.242.244.357.07.107.158.195.26.27l.15.11c.211.143.447.12.674.04.27-.118.371-.366.426-.638.071-.293.002-.555-.147-.811a1.435 1.435 0 0 0-.438-.406.613.613 0 0 0-.033-.051c-.195-.317-.47-.57-.709-.85l-.006-.012-.023.017a4.88 4.88 0 0 0-.02-.06c-.093-.26-.293-.367-.49-.362zm-6.147.51c-.157.002-.318.084-.43.275-.133.233-.285.454-.434.677-.084.13-.18.251-.262.383-.103.165-.18.34-.236.526a5.763 5.763 0 0 0-.09.385c-.029.14-.042.28-.05.422a2.496 2.496 0 0 0-.01.393c.042.273.21.481.41.66l.117.069c.078.22.302.39.622.309l.06-.017a.919.919 0 0 0 .387-.247c.083-.1.154-.207.203-.328.063-.144.113-.292.146-.446.046-.19.083-.382.1-.577.028-.235.052-.47.072-.707.032-.357.075-.713.132-1.067.058-.355-.168-.571-.42-.607a.517.517 0 0 0-.317-.104zm371.335.947c1.983.522 3.724 1.566 3.928 3.816-.04.375-.03.76-.121 1.126-.68 2.748-3.222 4.564-5.545 5.855-.53.197-1.044.446-1.59.59-2.32.608-4.614-.463-6.353-1.95-1.175-1.645-1.127-2.75-.19-3.917a1.15 1.15 0 0 0 .46-.377 14.82 14.82 0 0 1 1.807-2.023c.901-.808 1.95-1.428 3.005-2.009.38-.208.765-.4 1.16-.571.034.04.065.084.089.131.397-.113.797-.218 1.187-.327.559-.098 1.243-.272 1.89-.267.09.001.178.005.266.014a.925.925 0 0 0 .007-.091zm-268.283.608a.975.975 0 0 0-.73.356.956.956 0 0 0-.475.868c-.028.084-.062.175-.074.173a24.478 24.478 0 0 1-1.05 2.097c-.613 1.053-1.27 2.08-2.049 3.02-.392.473-.8.932-1.225 1.372-.054.09-.122.182-.208.275-.26.282-.518.569-.784.848-.147.155-.296.307-.45.454l-.037.036c-.166.157-.337.309-.516.452a7.46 7.46 0 0 1-.55.392c-.187.124-.378.244-.563.372-.089.06-.176.109-.26.147l-.014.006a1.24 1.24 0 0 1-.236.078c-.163.13-.322.266-.491.39-.09.064-.184.123-.28.18-1.812 1.325-3.817 2.377-5.83 3.371-.85.5-1.713.91-2.717 1.13a9.08 9.08 0 0 1-.783.39c-.06.028-.12.053-.177.072-.077.031-.153.066-.232.095-.856.134-1.196.796-1.117 1.404a.569.569 0 0 0-.092.3c.007.542-.005.257.041.854a.685.685 0 0 0 .01.079c-.03.15-.048.311-.033.492v.004c.023.162.009-.007-.015.222-.042.406.026.823-.051 1.227.01 1.392-.095 2.786-.134 4.177-.212 2.242-.397 4.5-1.15 6.643-1.097 3.136-2.368 6.213-3.99 9.118-1.858 3.55-3.925 7.042-6.657 9.999-.157.147-.31.297-.463.447-.421.538-1.016 1.102-1.378 1.45-.108.103-.426.398-.805.748-.925.855-2.3 2.118-2.501 2.302-.37.34-.738.606-1.095.807l-.023.02-1.624 1.367c-.166.14-.33.265-.493.378l-1.09.987c-.504.456-1.001.777-1.474.984a56.036 56.036 0 0 1-2.352 1.98 63.189 63.189 0 0 1-3.895 2.856c-.67.462-1.342.922-2.02 1.374.192.003.383.008.573.013.288-.019.577-.03.865-.03a10.254 10.254 0 0 1 2.201.22l.135.012-.027-.186c-.006-.041.074.04.114.05l.22.053c.265-.152.557-.1 1.024.002.913-.65 1.81-1.321 2.686-2.021 1.25-1 2.47-2.037 3.623-3.15 1.278-1.201 2.52-2.437 3.768-3.67.943-.91 1.907-1.8 2.912-2.64.495-.352.98-.717 1.447-1.104.501-.414.97-.864 1.455-1.296a44.578 44.578 0 0 0 5.319-7.127c.377-.626 1.6-2.894 1.954-3.545 1.319-2.652 2.703-5.283 3.706-8.076.171-.477.317-.963.476-1.445.802-2.37 1.161-4.835 1.287-7.325.151-1.436.133-2.882.198-4.319-.05-.399.052-.798.035-1.196-.01-.275-.066-.038-.007-.255-.009-.099.007-.178 0-.279a1.614 1.614 0 0 0-.233-.737 9.98 9.98 0 0 0 .724-.315c.145-.014.299-.06.457-.144 1.052-.643 2.113-1.271 3.173-1.902 1.36-.833 2.747-1.623 4.1-2.47 1.267-.815 2.455-1.748 3.629-2.692 1.296-1.003 2.435-2.171 3.48-3.429a21.253 21.253 0 0 0 1.653-2.321c-.182 1.688-.584 3.335-1.104 4.95a31.38 31.38 0 0 1-1.61 3.892 45.393 45.393 0 0 1-1.559 2.762c-.22.356-.467.694-.725 1.023a12.242 12.242 0 0 0-.598 1.55c-.007.027-.016.053-.024.08a17.792 17.792 0 0 0-.148.494c0 .002 0 .004-.002.007-.138.486-.263.977-.391 1.466l-.027.087c.06-.037.124-.072.195-.104a45.168 45.168 0 0 1 2.346-1.008 29.796 29.796 0 0 1 2.41-.852 7.58 7.58 0 0 1 .517-.22c1.158-.409 2.37-.611 3.577-.812 1.152-.203 2.305-.396 3.45-.63.706-.17 1.409-.35 2.117-.51.293-.063.591-.099.884-.166.162-.037.325-.066.488-.1.375-.063.741-.168 1.11-.26.892-.2 1.729-.58 2.564-.94 1.385-.628 2.714-1.368 4.004-2.169 1.262-.768 2.397-1.705 3.465-2.72.82-.804 1.537-1.702 2.233-2.613-.01.177-.02.354-.033.53-.019.885-.231 1.723-.563 2.537-.347.78-.761 1.529-1.168 2.279-.404.72-.88 1.396-1.364 2.063a20.108 20.108 0 0 1-1.379 1.648c-.463.489-.966.938-1.448 1.409-.462.467-.947.91-1.443 1.341-.353.31-.734.583-1.124.842-.11.072-.222.143-.333.213l-.092.076-.208.172c-.44.364-.841.69-1.233.996-.496.007-.992.021-1.487.057-1.414.072-1.312 2.07.101 1.998.158-.011.315-.02.473-.028.222.076.442.152.665.234 1.038.156 2.063.374 3.113.458 1.514.148 3.015-.042 4.497-.342.994-.266 2.024-.504 2.942-.987.46-.242.988-.618 1.416-.91a31.277 31.277 0 0 0 3.442-3.267c.11-.125.223-.248.335-.371-.118.305-.238.609-.362.91-.544 1.552-1.404 2.95-2.262 4.342-.733 1.115-1.519 2.206-2.416 3.196a6.937 6.937 0 0 1-2.056 1.747c-.585.39-1.26.592-1.914.83-.105.031-.212.059-.318.088a7.033 7.033 0 0 1-.364-.081 1.302 1.302 0 0 0-.279-.036 1.264 1.264 0 0 0-.369-.064 46.762 46.762 0 0 1-1.752-.079c-1.413-.069-1.51 1.93-.097 1.998v.001a48.131 48.131 0 0 0 1.881.08c.049.018.1.034.154.047 1.017.257 2.07.305 3.113.347 1.418.06 2.831-.107 4.242-.226 1.429-.135 2.84-.402 4.235-.74.928-.228 1.843-.5 2.752-.793a33.96 33.96 0 0 0 1.335-.45c-.324.333-.654.661-.98.992a20.55 20.55 0 0 1-2.067 1.781c-.674.502-1.395.93-2.13 1.334-.81.452-1.644.852-2.49 1.231-.84.39-1.683.775-2.53 1.15-.393.189-.798.338-1.21.474l-.06.038c-.023.014-.044.029-.069.042a1.884 1.884 0 0 1-.118.061l-.004.002c-.09.043-.19.082-.3.115-.972.297-1.935.625-2.878 1.01a2.366 2.366 0 0 1-.308.1c-.044.011-.087.02-.129.027l-.04.006a1.048 1.048 0 0 1-.077.01l-.034.003a8.3 8.3 0 0 1-.229.055c-.004.001-.008 0-.01.002-.533.118-1.074.184-1.619.218-.866.203-1.748.33-2.648.357-.229.05-.459.095-.69.129l-.477.068h-.057a41.737 41.737 0 0 1-3.553-.121c-1.066-.093-2.136-.177-3.191-.359a30.953 30.953 0 0 1-2.436-.555 52.807 52.807 0 0 0-2.16-.486c-.705-.151-1.414-.308-2.136-.351-.61-.039-.627-.018-1.356.435l-.047.07-.184.259c-.139.198-.265.403-.442.57-.09.109-.277.35-.289.404-.027.034-.243.294-.305.371-.422.542-.81 1.108-1.176 1.688-.543.837-1.095 1.673-1.575 2.548-.085-.011-.174-.016-.254-.034-.132.175-.263.35-.396.523-.813.896-1.607 1.805-2.402 2.716-.836.891-1.533 1.896-2.278 2.86a54.428 54.428 0 0 0-2.332 3.148c-.683.888-1.325 1.807-2.036 2.673-.194.216-.38.438-.56.664-.046.158-.106.32-.176.485a66.111 66.111 0 0 0-1.792 2.45c-.208.3-.418.598-.627.899-.665.81-1.338 1.614-2.02 2.41v.001a178.46 178.46 0 0 1-5.024 5.584c1.32-.32 2.65-.598 3.993-.792a207.87 207.87 0 0 1 1.69-2.193c.169-.224.335-.45.502-.675a.54.54 0 0 0 .274-.276l.241-.423.132-.178c.06.066.116.132.16.187.115-.034.095-.152.19-.233.124-.138.278-.244.401-.38.168-.188.269-.425.446-.605.28-.327.577-.639.784-1.024a27.793 27.793 0 0 0 1.48-1.983c.586-.801 1.257-1.54 1.842-2.343.731-.908 1.506-1.784 2.105-2.792.775-1.025 1.54-2.055 2.296-3.094.704-.927 1.445-1.823 2.169-2.734.278-.314.564-.62.85-.929.36-.462.732-.917 1.104-1.368l.01-.022c.121-.262.26-.509.41-.744.01-.013.018-.026.027-.04.15-.23.31-.45.485-.658l.614-1.048c.118-.2.246-.358.378-.477l-.11.038c.224-.352.451-.702.678-1.052.336-.531.69-1.051 1.076-1.547.17-.199.34-.394.472-.62.017-.026.016-.027.022-.037a.95.95 0 0 0 .055-.062c.187-.184.334-.399.482-.613.584.048 1.157.178 1.729.301.697.148 1.395.292 2.086.469.847.229 1.702.422 2.564.583 1.12.196 2.253.286 3.384.385 1.242.102 2.487.133 3.733.13a24.9 24.9 0 0 0 4.044-.313c1.49-.275 2.892-.847 4.275-1.447.395-.097.789-.2 1.18-.312.77-.229 1.534-.472 2.262-.816.85-.377 1.695-.764 2.539-1.154.895-.402 1.779-.826 2.636-1.305.822-.453 1.628-.934 2.38-1.497a22.598 22.598 0 0 0 2.277-1.965c.673-.684 1.359-1.357 1.988-2.082.564-.688 1.082-1.411 1.631-2.112.254-.32.51-.636.775-.947.036-.042.142-.083.109-.127a8.847 8.847 0 0 0-.523-.631c-.108.006-.216.01-.32.02-.1-.04-.197-.082-.296-.123-.482.076-1.21.25-1.675.356-.208.16-.42.312-.643.45-.436.255-.908.44-1.374.63-.685.248-1.37.498-2.067.714-.862.278-1.73.537-2.61.753-1.294.315-2.605.563-3.932.69-.588.05-1.176.109-1.765.155.487-.43.918-.926 1.383-1.375a49.13 49.13 0 0 0 2.565-3.46c.977-1.487 1.762-3.086 2.465-4.719.588-1.583 1.156-3.17 1.542-4.818.26-1.09.57-2.217.417-3.344-.076-.174-.079-.405-.227-.523-.035-.027-.066-.045-.1-.07l-.516.396c-.14.095-.275.196-.417.287-.09.057-.09.005-.166.089-.592.651-1.063 1.407-1.593 2.105a1.99 1.99 0 0 1-.361.37.182.182 0 0 1-.01.025c-.527 1.024-1.262 1.917-2.075 2.728-1.02 1.027-1.963 2.15-3.156 2.986-1.07.795-2.236 1.359-3.567 1.56-1.279.26-2.567.523-3.88.35-.237-.029-.474-.06-.71-.091.208-.127.414-.257.618-.39.46-.308.91-.632 1.327-.997a28.25 28.25 0 0 0 1.53-1.422c.505-.495 1.036-.965 1.52-1.482a22.15 22.15 0 0 0 1.525-1.828c.536-.738 1.06-1.487 1.504-2.285.444-.818.896-1.635 1.268-2.488.4-1.009.67-2.048.702-3.14.07-.997.105-1.995.109-2.995.013-.563.067-.824.015-.965.004-.07-.032-.104-.115-.118-.133-.065-.39-.093-.86-.197-.291.21-.576.427-.819.696-.438.448-.949.815-1.362 1.29-.367.344-.328.336-.543.43-.625.817-1.268 1.625-2 2.35-.968.923-1.997 1.773-3.142 2.47a33.133 33.133 0 0 1-3.744 2.032c-.735.318-1.47.66-2.254.836-.342.085-.68.183-1.028.241-.198.041-.399.075-.596.125.067-.004.034-.003-.077.014a17.04 17.04 0 0 0-.739.135c-.694.158-1.384.33-2.076.5-1.12.231-2.25.419-3.376.618-1.342.224-2.688.456-3.973.92-.43.17-.846.365-1.248.586.043-.066.086-.132.127-.199a47.113 47.113 0 0 0 1.647-2.92 33.5 33.5 0 0 0 1.72-4.167c.594-1.855 1.046-3.75 1.223-5.695.123-1.405.173-2.811.196-4.22.04-.751-.505-1.134-1.036-1.116v-.001zm295.003.335c-.007.173-.015.347-.025.52a1.685 1.685 0 0 0-.208-.09l.233-.43zm-63.002 1.249a1.188 1.188 0 0 0-.507.135c-.37.188-.742.375-1.113.562-1.254.656-.328 2.43.926 1.774l1.09-.55c1.085-.548.571-1.944-.396-1.921zm10.695 4.514c-.272 0-.558.119-.801.405-.616.727-1.234 1.45-1.855 2.172-.924 1.072.593 2.378 1.516 1.306.624-.726 1.246-1.453 1.865-2.183.672-.793.027-1.701-.725-1.7zm-12.62 2.138a.25.25 0 0 1-.179.041c.06-.013.12-.029.18-.041zm-93.502 6.818c.026-.007.073.01.107.013-.07.022-.13.036-.125.007.002-.011.009-.017.018-.02zm-220.192.081c.151.152.302.307.457.456.106.086.21.176.313.266-.48.987-.81 2.058-1.243 3.056-.284.78-.557 1.568-.823 2.356.348-1.64.7-3.281 1.053-4.92.083-.403.175-.807.243-1.214zm310.587.406-.066.428a.977.977 0 0 0-.087.022l.084-.252.07-.198zm-313.542.297c-.01.028-.022.057-.034.085-.573 1.47-1.16 2.935-1.684 4.422-.148.442-.246.728-.344 1.024.004-.043.01-.084.015-.127.022-.226.122-1.27.101-1.564-.013-.195-.064-.387-.103-.579.24-.385.482-.77.712-1.162.47-.684.853-1.425 1.337-2.099zm-15.884.803c.249.19.497.378.727.594.303.288.619.56.92.85l-.22-.08c-.05-.017-.055.093-.082.14-.107.222-.211.444-.328.662-.323.637-.637 1.28-.935 1.93-.588 1.33-1.054 2.706-1.496 4.091-.39 1.136-.786 2.27-1.188 3.401.41-1.676.815-3.353 1.211-5.033.492-2.036 1.033-4.072 1.369-6.142 0-.026.016-.222.022-.413zm-18.645 1.036c.275.271.539.554.815.823.1.092.2.186.297.28-.245.35-.482.707-.725 1.059a81.253 81.253 0 0 0-1.957 3.126c.472-1.775.915-3.568 1.57-5.288zm40.445.168.282.28c.078.06.153.124.226.19-.016.024-.03.05-.046.073-.035.01-.07.017-.106.026a6.913 6.913 0 0 0-.576.213c.075-.26.144-.522.22-.782zm-18.507 1.856.012.01c.125.132.253.258.383.382-.021.035-.04.07-.062.11-.214.466-.361.96-.505 1.452-.353 1.204-.674 2.416-1.024 3.62l-.112.364c.312-1.25.609-2.505.878-3.763.148-.724.302-1.447.43-2.175zm10.473.172c-.031.052-.043.136-.07.194.013-.04.025-.082.04-.122.009-.025.044-.095.03-.072zm-17.797.381c-.036.126-.073.25-.108.376l-.06.222a18.687 18.687 0 0 1-.18-.156c.116-.147.233-.294.348-.442zm31.168.223c.015.228.01.146-.007.028l.007-.028zm-42.66.392c.237.242.472.486.704.734l-.013-.001a14.991 14.991 0 0 1-.308-.149c-.02.041-.035.084-.053.126l-.009-.001c-.15-.011-.112.279-.164.42-.009.021-.015.042-.022.063-.005.009-.007.017-.011.026a100.83 100.83 0 0 1-1.66 3.71l-.335.708c.608-1.883 1.221-3.766 1.87-5.636zm2.097 2.233c.148.171.296.342.45.508.04.042.08.085.119.129a24.8 24.8 0 0 0-.529 1.283c-.359.95-.686 1.91-1.02 2.87-.673 1.916-1.354 3.829-2.198 5.678l-.235.536c.273-.878.547-1.757.825-2.632.836-2.7 1.614-5.418 2.486-8.105.038-.108.068-.181.102-.267zm23.961.758c-.111.455-.226.909-.346 1.362a96.92 96.92 0 0 1-.445 1.511 38.17 38.17 0 0 0 .297-2.602 1.74 1.74 0 0 0 .494-.27zm-18.269 1.247-.042.105c-.52 1.305-1.035 2.616-1.55 3.925.021-.155.044-.31.064-.465.115-.85.238-1.703.325-2.557.224-.04.45-.157.658-.377h.004c.187-.204.367-.416.541-.63zm-11.953 1.36c-.017.058-.036.115-.055.173a381.16 381.16 0 0 0-1.934 6.223 272.21 272.21 0 0 0-.011-1.325c-.005-.337-.007-.674-.011-1.011a.81.81 0 0 1 .055-.143c.431-1.028.957-2.014 1.47-3.003.16-.306.322-.61.486-.913zm158.266.544a.19.19 0 0 0 .06.034l.055.012-.111-.045a.013.013 0 0 0-.004 0zm185.545.258-.064.132c-.073.11-.125.22-.157.327-.165.346-.327.692-.48 1.043l-.212-.068a2.304 2.304 0 0 0-.156-.121c.36-.435.717-.872 1.07-1.313zm16.434 1.443a.989.989 0 0 0 .01.163l-.096.022a.947.947 0 0 0-.682-.014.982.982 0 0 0-.268-.14l1.036-.031zm-321.693.423c.003.141.008.283.014.424-.059.1-.125.196-.18.299.054-.242.112-.482.166-.723zm312.762.358a.949.949 0 0 0-.353.594 6.81 6.81 0 0 0-.885.285c.028-.197.054-.393.08-.59.383-.105.77-.203 1.157-.29zm-197.75 1.884c.007.014.023.063.039.11.004 0 .008-.002.01-.003-.002-.008-.053-.116-.05-.107zm205.085.743c.013 0 .025.002.038.003l-.036.03c-.959.812-1.815 1.722-2.618 2.68l-.154-.114a81.603 81.603 0 0 1 2.77-2.599zm-362.771 0c0 .252.003.503.006.753l-.031.357c.002-.37.012-.74.025-1.109zm354.6.267a1.104 1.104 0 0 0-.174.389c-.063-.047-.133-.097-.203-.146.122-.091.248-.171.377-.243zm-317.595.171a85.654 85.654 0 0 0-.39 2.683 15.43 15.43 0 0 0-.06.568c-.052 0-.106.001-.16.008a1.905 1.905 0 0 0-.386.12c.354-1.12.684-2.247.996-3.379zm22.968.146.034.027c.047.035.212.097.16.072a2.926 2.926 0 0 1-.194-.1zm290.718.056c.027.235.097.446.248.602.063.066.134.122.209.173l-1.024 2.154-.684 1.43c.33-1.15.662-2.299.99-3.448l.26-.91zm-7.642.116-.286.555-.42.806c-.397.4-.8.796-1.205 1.188a4.057 4.057 0 0 0-.523.028.875.875 0 0 0-.002-.17c.52-.493 1.036-.99 1.547-1.491.3-.303.595-.609.889-.916zm15.16.799c-.722.713-1.436 1.436-2.146 2.16a20.96 20.96 0 0 1-.55.276l.495-1.359c.12-.092.227-.17.31-.23a24.3 24.3 0 0 1 1.036-.529c.286-.103.571-.209.855-.318zm-343.636 1.086c-.23.787-.458 1.573-.67 2.365a39.247 39.247 0 0 0-.421 1.881c-.07.37-.115.743-.156 1.117-.27-.221-.545-.437-.822-.648l.02-.06c.097-.256.18-.433.294-.691a90.43 90.43 0 0 0 1.755-3.964zm24.68.463h.001c-.024.16-.049.32-.071.48-.049.396-.102.79-.148 1.187l-.187-.124c.013-.084.01-.18.034-.256.056-.193.11-.387.165-.58.067-.236.138-.471.207-.707zm-18.559.708a169.077 169.077 0 0 0-.86 3.149 55.947 55.947 0 0 0-.864 4.103 120.35 120.35 0 0 0-.273 1.758c-.572-.506-1.147-1.01-1.72-1.517.32.007.64.009.957.028 0-.026.005-.051.007-.076.004-.007.006-.017.009-.024.017-.06.03-.123.048-.183.034-.117.067-.234.104-.35.171-.538.264-.775.47-1.35.701-1.848 1.415-3.692 2.122-5.538zm12.134 1.11c-.079.448-.16.896-.234 1.345-.095.528-.162 1.06-.231 1.591.032.004.064.011.096.016-.333.45-.66.904-.983 1.363.21-.723.452-1.437.68-2.155.233-.717.455-1.438.672-2.16zm-16.06.285c-.111.516-.22 1.033-.324 1.55a69.483 69.483 0 0 0-.556 3.18l-.046.343-.595-.547c.09-.098.144-.275.184-.555.009-.097.015-.193.022-.29.035-.115.074-.266.145-.508.382-1.06.779-2.116 1.17-3.173zm-6.31.39a20.26 20.26 0 0 0-.183 1.03l-.013.116a1.95 1.95 0 0 0-.166.185 8.976 8.976 0 0 0-.357.508l.05-.132c.225-.566.448-1.137.669-1.706v-.001zm-6.943.277a162.49 162.49 0 0 0-.477 1.679c-.194.688-.374 1.38-.544 2.074-.015-.121-.03-.244-.043-.363a92.352 92.352 0 0 1-.083-.814c.376-.86.76-1.72 1.147-2.576zm341.298.24-.57 1.748c-1.01.29-2.022.578-3.032.871.136-.147.236-.33.32-.53.027.042.068.07.13.077 2.087.235 2.422-.814 3.152-2.165zm-315.275.134c-.11.847-.209 1.698-.315 2.547l-.043.336c-.007.04-.045.345-.055.416-.007.029-.042.082-.013.087l.013.003c.013.146.197.121.675.14.545.132.86.26 1.063.338-1.084 1.552-2.157 3.116-3.17 4.717.061-.315.12-.631.182-.947a218.998 218.998 0 0 1 1.663-7.637zm14.827.063h.002c-.02.166-.038.331-.059.497-.097.683-.27 1.353-.354 2.038l-.007.107a94.66 94.66 0 0 0-.997-.943c.553-.499 1.008-1.082 1.415-1.7zm5.495.453.01.03c.005-.005.005-.016.007-.024-.006-.001-.011-.004-.017-.006zm286.643.16-.068.108c-.467.68-.968 1.34-1.523 1.95-.022-.374-.043-.748-.061-1.123.287.061.615-.009.919-.284l.733-.651zm-313.224 1a94.778 94.778 0 0 0-.535 3.148 42.958 42.958 0 0 0-.433 4.278c-.004.238-.013.474-.025.71-.488-.42-.966-.852-1.434-1.296.387-1.272.834-2.527 1.284-3.78.392-1.016.77-2.037 1.143-3.06zm316.327 1.268.04.002a5.863 5.863 0 0 1-.038.012l-.002-.014zm5.615.472-.024.265c-.021-.088-.043-.174-.061-.24l.085-.025zm17.05.194a17.78 17.78 0 0 0-1.04.674 1.054 1.054 0 0 1-.068-.096c.361-.21.731-.402 1.109-.578zm-316.653.324c-.004.101-.004.202.007.302.007.059.017.117.027.175a74.027 74.027 0 0 0-.447-.455c.123-.002.268-.011.413-.022zm292.065.744v.138c.004.156.031.293.077.414-.067.023-.133.047-.199.072a.962.962 0 0 0-.185-.13c.076-.16.154-.318.234-.477l.073-.017zm-291.732.043c.312.133.62.294.938.39-.031.066-.064.13-.096.196a2.83 2.83 0 0 0-.098.22c-.064-.073-.128-.148-.193-.22a45.949 45.949 0 0 0-.551-.586zm314.33.071c-.025.177-.1.268-.197.308.064-.103.13-.206.196-.308zm-23.168.142c.059.063.114.127.167.192a1.032 1.032 0 0 0-.188-.056l.021-.136zm-311.497.835h.001l-.006.06c-.029.383-.054.768-.08 1.153-.077 0-.153.009-.228.024.102-.413.207-.826.313-1.237zm-20.897.99a43.976 43.976 0 0 0-.53 2.11c-.104.47-.19.944-.264 1.42-.066-.192-.13-.384-.193-.576.283-1 .622-1.982.987-2.955zm340.243.036-.005.073a2.72 2.72 0 0 0-.092-.029l.097-.044zm10.448 1.901c.006.05.026.094.069.126.06.045.123.085.188.122l-.084.141c-.105-.046-.209-.099-.313-.153l.14-.236zM89.1 270.156l.056.011-.09.152.034-.163zm-20.8 1.788c-.054.208-.106.417-.159.625-.029-.046-.06-.092-.088-.138a9.192 9.192 0 0 1-.25-.472c.166-.007.331-.01.497-.015zm351.286 4.924c.02.004.038.01.057.013.08.048.163.092.247.132l-.134.44c-.042-.14-.083-.282-.122-.424a1.37 1.37 0 0 0-.048-.16z" style="font-style:normal;font-variant:normal;font-weight:400;font-stretch:normal;font-size:48.5931px;line-height:1.25;font-family:&quot;Abyssinica SIL&quot;;-inkscape-font-specification:&quot;Abyssinica SIL&quot;;text-align:center;letter-spacing:0;word-spacing:0;text-anchor:middle;white-space:pre;inline-size:464.232;fill:#f9f9f9;fill-opacity:1;stroke:none;stroke-width:.2305"/></svg>